<?xml version="1.0" standalone="no"?>
<!DOCTYPE svg PUBLIC "-//W3C//DTD SVG 20010904//EN"
 "http://www.w3.org/TR/2001/REC-SVG-20010904/DTD/svg10.dtd">
<svg version="1.0" xmlns="http://www.w3.org/2000/svg"
 width="1040.000000pt" height="1040.000000pt" viewBox="0 0 1040.000000 1040.000000"
 preserveAspectRatio="xMidYMid meet">
<metadata>
Created by potrace 1.14, written by Peter Selinger 2001-2017
</metadata>
<g transform="translate(0.000000,1040.000000) scale(0.100000,-0.100000)"
fill="#000000" stroke="none">
<path d="M4960 8310 c0 -3 -26 -5 -58 -6 -74 -1 -140 -9 -148 -17 -4 -4 -14
-1 -22 6 -13 10 -14 9 -7 -2 6 -11 4 -13 -8 -8 -9 3 -18 1 -21 -6 -3 -8 -5 -8
-5 2 -1 11 -4 11 -16 1 -9 -7 -18 -10 -22 -7 -3 4 -12 2 -20 -4 -10 -9 -13 -8
-13 0 0 8 -6 7 -16 -4 -13 -13 -19 -13 -32 -3 -13 11 -14 11 -8 0 6 -10 3 -13
-10 -10 -11 2 -24 -3 -31 -12 -9 -10 -12 -11 -13 -2 0 9 -5 9 -17 3 -24 -13
-74 -25 -92 -22 -9 2 -12 -3 -7 -16 6 -14 4 -15 -5 -6 -14 14 -72 -4 -63 -19
5 -7 1 -7 -11 0 -14 7 -26 5 -48 -9 -17 -10 -34 -16 -39 -13 -4 3 -8 1 -8 -4
0 -5 -6 -9 -12 -9 -7 0 -37 -12 -66 -26 -28 -14 -49 -20 -46 -14 3 7 -1 4 -9
-5 -8 -10 -17 -15 -20 -11 -4 3 -7 1 -7 -5 0 -7 -6 -11 -12 -9 -7 1 -12 -3
-11 -10 2 -7 -4 -10 -12 -7 -8 3 -26 -3 -41 -15 -14 -11 -30 -18 -35 -15 -5 3
-12 -2 -15 -10 -3 -9 -10 -14 -14 -11 -4 3 -13 -2 -20 -10 -7 -8 -19 -15 -26
-15 -8 0 -14 -5 -14 -11 0 -5 -4 -7 -10 -4 -5 3 -10 1 -10 -5 0 -6 -4 -8 -10
-5 -5 3 -10 1 -10 -5 0 -6 -11 -15 -25 -20 -14 -5 -25 -15 -25 -21 0 -7 -3 -9
-7 -6 -3 4 -17 -6 -31 -21 -14 -15 -27 -26 -29 -24 -9 7 -23 1 -18 -8 6 -9 -8
-14 -28 -11 -5 1 -6 -3 -2 -9 3 -5 -1 -10 -10 -10 -9 0 -14 -3 -12 -7 3 -5 -1
-14 -9 -21 -8 -7 -14 -9 -14 -5 0 4 -11 -4 -24 -19 -12 -15 -26 -25 -30 -21
-3 3 -6 2 -6 -4 0 -6 -28 -41 -62 -77 -70 -72 -96 -102 -118 -136 -8 -12 -21
-28 -27 -36 -7 -7 -13 -20 -13 -29 0 -9 -4 -13 -10 -10 -5 3 -10 2 -10 -3 0
-14 -30 -24 -44 -14 -6 4 -24 7 -41 6 -16 -1 -38 3 -49 8 -14 7 -16 7 -11 -2
5 -9 1 -10 -14 -5 -43 13 -82 15 -75 2 5 -9 4 -9 -6 0 -7 6 -19 9 -28 6 -11
-5 -13 -2 -7 6 6 10 3 11 -14 1 -16 -8 -26 -8 -35 -1 -9 7 -16 7 -23 0 -8 -8
-13 -8 -17 0 -5 7 -15 7 -32 0 -23 -8 -25 -7 -20 7 5 14 4 15 -9 4 -9 -7 -18
-10 -22 -7 -3 4 -15 2 -26 -4 -12 -7 -17 -7 -13 -1 4 7 -13 10 -47 10 -30 -1
-58 2 -65 5 -6 4 -13 -1 -15 -10 -4 -16 -5 -16 -6 -1 -1 14 -6 15 -30 8 -16
-4 -32 -6 -34 -3 -10 9 -58 10 -63 1 -3 -5 -11 -4 -19 2 -9 8 -15 8 -20 0 -4
-7 -12 -7 -24 0 -10 5 -21 7 -24 4 -3 -3 -35 -6 -72 -5 -39 0 -63 -4 -60 -9 4
-6 -4 -6 -20 0 -18 7 -33 7 -46 0 -15 -9 -21 -7 -25 5 -6 14 -8 14 -20 -2 -7
-10 -14 -13 -14 -8 0 11 -37 13 -56 4 -5 -3 -37 -5 -71 -4 -35 0 -63 -3 -63
-6 0 -3 -12 -5 -27 -3 -15 1 -36 -2 -46 -8 -14 -7 -17 -7 -13 1 5 8 0 8 -17 2
-13 -5 -36 -8 -51 -7 -14 2 -26 0 -26 -5 0 -5 -7 -6 -15 -3 -8 4 -22 1 -30 -6
-11 -9 -15 -10 -15 -1 0 8 -8 10 -22 5 -13 -4 -29 -7 -35 -7 -7 0 -13 -5 -13
-11 0 -6 -5 -4 -10 4 -6 9 -10 11 -10 3 0 -7 -6 -10 -14 -7 -8 3 -17 0 -21 -6
-6 -9 -10 -9 -16 1 -8 12 -10 12 -18 0 -5 -8 -23 -14 -40 -13 -18 0 -31 -4
-31 -11 0 -8 -3 -8 -8 -2 -9 13 -35 18 -28 6 4 -5 -3 -10 -14 -10 -11 -1 -29
-1 -40 -2 -11 0 -18 -4 -15 -9 3 -5 -6 -7 -20 -4 -14 2 -25 0 -25 -5 0 -4 -8
-8 -17 -8 -31 2 -83 -14 -83 -25 0 -6 -7 -5 -16 3 -9 7 -18 9 -22 3 -12 -16
-52 -35 -62 -29 -6 4 -10 2 -10 -3 0 -6 -9 -8 -20 -5 -11 3 -20 1 -20 -5 0 -8
-46 -23 -66 -21 -3 0 -16 -7 -30 -16 -14 -9 -28 -14 -31 -11 -3 3 -12 -2 -20
-12 -8 -9 -12 -12 -9 -5 5 8 0 8 -18 0 -13 -7 -22 -16 -19 -21 4 -5 1 -6 -5
-2 -6 3 -27 -3 -46 -14 -20 -11 -36 -17 -36 -14 0 3 -7 -2 -16 -10 -8 -9 -20
-14 -25 -11 -5 4 -9 2 -9 -3 0 -5 -13 -15 -30 -22 -16 -7 -30 -16 -30 -21 0
-5 -7 -9 -16 -9 -9 0 -25 -10 -35 -22 -11 -11 -19 -17 -19 -13 0 4 -8 -2 -19
-13 -10 -12 -23 -22 -30 -22 -6 0 -11 -5 -11 -11 0 -5 -13 -15 -30 -20 -16 -6
-28 -14 -26 -18 6 -10 -30 -41 -38 -34 -3 4 -6 -1 -6 -10 0 -9 -7 -17 -17 -17
-9 0 -14 -3 -10 -6 3 -3 -8 -19 -24 -35 -16 -16 -27 -29 -23 -29 4 0 -3 -9
-15 -19 -13 -11 -20 -25 -16 -30 3 -6 0 -11 -8 -11 -8 0 -18 -10 -22 -22 -4
-13 -8 -25 -10 -28 -1 -3 -5 -13 -9 -22 -5 -10 -12 -15 -17 -12 -5 3 -6 -3 -2
-12 4 -11 3 -15 -4 -11 -7 4 -10 0 -8 -10 1 -10 -5 -27 -14 -37 -10 -12 -11
-16 -2 -11 9 5 7 -1 -4 -19 -10 -14 -14 -26 -10 -26 4 0 2 -7 -5 -15 -7 -8
-10 -15 -6 -15 3 0 1 -11 -4 -25 -6 -16 -6 -26 1 -31 6 -4 5 -11 -3 -21 -14
-17 -20 -233 -7 -233 4 0 6 -8 4 -17 -1 -10 2 -24 8 -30 5 -7 6 -13 1 -13 -5
0 -9 -11 -9 -24 0 -13 5 -24 10 -23 6 1 10 -6 10 -15 0 -10 6 -23 12 -29 8 -8
9 -18 2 -31 -6 -12 -6 -18 1 -18 5 0 10 -9 10 -19 0 -11 4 -22 9 -25 5 -3 12
-22 15 -41 4 -19 11 -35 16 -35 5 0 6 -7 3 -17 -4 -11 -3 -14 5 -9 11 6 17
-12 13 -37 -1 -4 5 -10 13 -13 9 -3 12 -12 9 -21 -4 -11 -2 -14 5 -9 8 5 12 0
12 -14 0 -12 4 -18 10 -15 5 3 7 0 4 -8 -3 -8 2 -21 10 -30 9 -9 16 -20 16
-25 0 -6 5 -12 10 -14 6 -2 12 -13 13 -25 0 -12 6 -21 12 -20 5 1 9 -6 9 -15
-1 -10 1 -16 5 -14 6 4 38 -26 34 -31 -7 -8 -2 -23 6 -19 5 3 14 -8 21 -24 7
-17 16 -30 21 -30 5 0 9 -7 9 -15 0 -8 9 -20 20 -27 11 -7 20 -18 20 -25 0 -7
9 -18 20 -25 11 -7 20 -17 20 -21 0 -14 27 -36 35 -29 5 4 5 1 1 -5 -4 -8 14
-34 48 -68 31 -30 56 -58 56 -61 0 -11 28 -33 34 -27 3 4 6 0 6 -7 0 -14 37
-50 52 -50 5 0 6 -5 3 -11 -4 -6 3 -13 15 -16 14 -4 19 -11 15 -22 -3 -8 -3
-13 0 -9 10 10 55 -33 48 -45 -3 -6 -1 -7 5 -3 6 4 35 -17 66 -49 30 -30 60
-55 66 -55 6 0 15 -10 20 -22 5 -13 9 -17 9 -10 1 7 6 10 11 7 6 -4 8 -10 5
-15 -3 -5 3 -11 14 -15 11 -3 22 -13 25 -21 3 -8 10 -12 16 -9 5 3 10 -2 10
-11 0 -10 3 -15 6 -11 9 9 44 -25 37 -36 -3 -6 -1 -7 5 -3 6 3 17 0 25 -8 8
-8 17 -13 20 -10 3 3 8 -3 11 -13 7 -18 69 -63 87 -63 6 0 7 -5 3 -12 -5 -8
-2 -9 9 -5 11 4 17 1 17 -8 0 -8 5 -16 10 -16 6 -1 14 -2 19 -3 5 0 13 -5 18
-10 5 -5 2 -6 -7 -2 -8 4 -6 1 5 -8 11 -8 25 -20 32 -26 7 -5 19 -10 27 -10 9
0 21 -9 28 -20 7 -11 18 -20 24 -20 7 0 15 -7 18 -16 3 -8 10 -12 16 -9 6 3
14 -4 19 -17 6 -13 10 -17 10 -10 1 6 6 12 13 12 6 0 9 -3 5 -6 -8 -8 10 -25
45 -43 15 -8 25 -18 22 -22 -2 -4 5 -6 16 -4 12 2 18 0 14 -6 -3 -6 3 -13 15
-16 12 -3 21 -10 21 -15 0 -5 4 -7 9 -3 6 3 14 -3 20 -12 8 -14 10 -15 11 -3
0 13 2 13 9 0 6 -8 7 -18 4 -24 -4 -5 1 -7 10 -3 8 3 21 -1 27 -9 7 -8 19 -14
26 -14 8 0 14 -4 14 -10 0 -5 5 -10 11 -10 7 0 18 -8 26 -17 10 -12 12 -13 8
-3 -4 10 -2 9 8 -2 8 -10 17 -15 20 -11 4 3 7 1 7 -6 0 -7 5 -9 10 -6 6 3 10
3 10 -2 0 -9 47 -39 93 -60 15 -6 27 -17 27 -24 0 -6 8 -9 20 -6 11 3 18 1 14
-4 -3 -5 2 -9 11 -9 10 0 13 -5 9 -12 -5 -7 -3 -8 5 -4 7 5 21 0 33 -11 11
-10 23 -18 27 -18 3 0 5 -4 3 -8 -1 -5 2 -6 8 -2 5 3 10 1 10 -4 0 -6 4 -10 8
-8 10 3 102 -44 102 -52 0 -4 9 -7 20 -8 11 -1 32 -11 46 -22 15 -12 33 -21
40 -21 7 0 18 -8 23 -17 6 -10 11 -14 11 -10 0 5 16 0 36 -12 19 -12 42 -21
50 -21 8 0 12 -4 9 -10 -6 -9 8 -14 28 -11 4 0 7 -4 7 -10 0 -5 5 -7 10 -4 6
3 10 1 10 -5 0 -6 5 -8 11 -4 7 4 9 -1 7 -12 -2 -11 -10 -18 -16 -17 -7 2 -12
-3 -12 -10 0 -7 -9 -19 -19 -27 -11 -7 -17 -18 -14 -24 4 -5 -1 -7 -10 -3 -10
3 -17 2 -17 -3 0 -6 -13 -24 -30 -42 -16 -17 -30 -37 -30 -45 0 -8 -5 -11 -10
-8 -6 3 -14 -5 -20 -19 -5 -14 -14 -26 -20 -26 -5 0 -10 -7 -10 -15 0 -9 -7
-18 -15 -21 -8 -4 -12 -10 -9 -15 3 -5 1 -9 -5 -9 -6 0 -13 -11 -17 -25 -3
-14 -10 -22 -15 -19 -5 3 -9 -2 -9 -11 0 -8 -11 -33 -25 -55 -14 -22 -22 -40
-18 -40 5 0 -1 -7 -11 -15 -11 -9 -14 -15 -7 -15 9 0 8 -5 -3 -16 -9 -8 -14
-20 -11 -25 4 -5 2 -9 -3 -9 -8 0 -10 -6 -14 -49 -1 -11 -7 -17 -12 -14 -5 4
-7 -1 -3 -10 3 -9 2 -19 -3 -22 -5 -3 -6 -13 -3 -22 4 -9 2 -14 -3 -11 -5 4
-9 -4 -10 -15 0 -12 -3 -34 -7 -49 -3 -16 -1 -29 6 -32 9 -3 9 -5 0 -5 -8 -1
-13 -14 -13 -32 0 -20 -4 -28 -12 -23 -7 5 -8 3 -2 -7 5 -8 9 -194 10 -414 1
-220 2 -407 3 -415 1 -12 17 -15 91 -13 69 2 89 -1 83 -10 -5 -9 -3 -9 8 0 19
15 119 16 119 0 0 -9 2 -9 8 0 10 15 82 14 101 -1 11 -8 13 -8 8 1 -6 9 37 12
178 11 128 -1 185 -4 185 -12 0 -8 2 -8 8 0 10 16 232 16 232 0 0 -8 2 -8 8 0
10 16 304 16 314 0 6 -8 8 -8 8 1 0 8 33 11 110 10 60 0 107 -4 104 -8 -2 -5
8 -2 22 6 15 8 32 11 38 7 19 -11 31 -10 44 4 7 8 9 14 4 14 -9 0 -7 94 3 110
3 5 3 10 -2 10 -4 0 -8 22 -8 50 0 27 4 50 8 50 5 0 5 5 2 11 -11 17 -11 99 0
99 7 0 7 3 0 8 -5 4 -10 21 -10 37 0 17 5 33 10 37 7 5 6 8 0 8 -9 0 -12 42
-5 60 1 3 1 10 0 15 -6 24 -5 62 2 83 4 12 4 22 0 22 -4 0 -7 22 -7 50 0 27 4
50 8 50 5 0 5 5 2 11 -10 15 -12 80 -3 86 5 2 5 9 2 15 -10 16 -11 59 -2 86 4
13 3 22 -2 22 -12 0 -9 22 5 32 6 5 5 8 -2 8 -7 0 -10 6 -7 14 3 8 13 12 25 9
12 -3 19 0 19 8 0 12 2 12 9 0 6 -9 10 -10 16 -2 5 9 10 9 20 1 14 -11 42 -9
64 4 10 6 12 5 7 -2 -5 -8 1 -12 14 -12 13 0 19 4 14 12 -5 7 -3 8 7 3 7 -5
25 -9 39 -10 14 -1 31 -5 38 -9 7 -4 10 -2 7 6 -4 9 2 14 14 14 11 0 17 -4 15
-8 -6 -10 32 -5 42 5 4 4 12 7 18 7 6 0 4 -5 -4 -10 -13 -9 -13 -10 1 -10 8 0
21 6 28 13 11 10 13 10 7 0 -5 -9 0 -13 14 -13 13 0 19 4 14 12 -5 7 -3 8 7 3
7 -5 25 -9 39 -10 14 -1 31 -5 38 -9 7 -4 10 -2 7 6 -4 9 2 14 14 14 11 0 17
-4 15 -8 -6 -10 32 -5 42 5 4 4 12 7 18 7 6 0 4 -5 -4 -10 -11 -8 -8 -10 15
-7 17 3 38 0 47 -5 13 -6 16 -5 13 5 -4 8 2 13 14 13 11 0 17 -4 15 -8 -6 -10
32 -5 42 5 4 4 12 7 18 7 6 0 4 -5 -4 -10 -11 -8 -8 -10 15 -7 17 3 38 0 47
-5 13 -6 16 -5 13 5 -4 8 2 13 14 13 11 0 17 -4 15 -8 -6 -10 32 -5 42 5 4 4
12 7 18 7 6 0 4 -5 -4 -10 -11 -8 -8 -10 15 -7 17 3 38 0 47 -5 13 -6 16 -5
13 5 -4 8 2 13 14 13 11 0 17 -4 15 -8 -6 -10 32 -5 42 5 4 4 12 7 18 7 6 0 4
-5 -4 -10 -12 -8 -10 -10 10 -7 14 1 31 6 39 11 9 6 12 5 8 -1 -4 -6 4 -11 18
-10 16 0 22 4 18 11 -4 7 -1 6 8 -1 12 -10 18 -10 29 0 8 7 10 7 7 1 -4 -7 3
-11 18 -12 14 0 23 4 20 8 -2 3 2 7 10 7 8 0 12 -4 9 -9 -3 -4 4 -8 16 -8 13
0 19 4 14 12 -5 7 -3 8 7 3 7 -5 25 -9 39 -10 14 -1 31 -5 38 -9 7 -4 10 -2 7
6 -4 9 2 14 14 14 11 0 17 -4 15 -8 -6 -10 32 -5 42 5 4 4 12 7 18 7 6 0 4 -5
-4 -10 -13 -9 -13 -10 1 -10 8 0 21 6 28 13 11 10 13 10 7 0 -5 -9 0 -13 14
-13 14 0 19 4 14 13 -6 9 -4 9 7 2 17 -12 39 -13 58 -1 9 6 12 5 8 -1 -4 -6 4
-10 18 -10 16 0 22 4 18 11 -4 7 -1 6 8 -1 12 -10 18 -10 29 0 8 7 10 7 7 1
-4 -7 3 -11 18 -11 16 0 22 4 18 11 -4 7 -1 6 8 -1 12 -10 18 -10 29 0 8 7 10
7 7 1 -4 -7 3 -11 18 -11 16 0 22 4 18 11 -4 7 -1 6 8 -1 12 -10 18 -10 29 0
8 7 10 7 7 1 -4 -7 3 -11 18 -11 14 -1 23 3 20 7 -2 3 2 7 10 7 8 0 12 -4 9
-9 -3 -4 4 -8 16 -8 13 0 19 4 14 12 -5 7 -3 8 7 3 7 -5 25 -9 39 -10 14 -1
31 -5 38 -9 7 -4 10 -2 7 6 -4 9 2 14 14 14 11 0 17 -4 15 -8 -6 -10 32 -5 42
5 4 4 12 7 18 7 6 0 4 -5 -4 -10 -13 -9 -13 -10 1 -10 8 0 21 6 28 13 11 10
13 10 7 0 -5 -9 0 -13 14 -13 13 0 19 4 14 12 -5 7 -3 8 7 2 19 -12 41 -11 58
1 11 7 13 7 7 -2 -4 -8 -2 -13 6 -13 11 0 13 -94 12 -500 l-1 -500 31 -1 c17
-1 46 0 64 1 18 1 40 -4 49 -12 10 -8 14 -8 10 -1 -5 9 25 11 118 11 90 0 123
-3 118 -12 -5 -8 -3 -8 8 1 19 15 119 16 119 0 0 -9 2 -9 8 0 10 15 82 14 101
-1 11 -8 13 -8 8 1 -10 16 132 16 152 0 11 -9 13 -9 8 0 -5 9 25 11 118 11 90
0 123 -3 118 -12 -5 -8 -3 -8 8 1 19 15 119 16 119 0 0 -9 2 -9 8 0 10 15 82
14 101 -1 11 -8 13 -8 8 1 -10 16 355 15 365 -1 5 -8 8 -7 8 2 0 6 6 12 13 12
10 0 13 40 13 190 l-1 190 30 1 c17 1 36 1 43 0 6 -1 12 4 12 11 0 10 3 9 9
-1 7 -11 13 -12 23 -3 8 7 19 7 28 2 9 -5 19 -5 27 2 8 6 13 6 13 1 0 -5 7
-10 15 -10 8 0 12 4 10 7 -3 4 18 7 45 6 28 -1 50 1 50 4 0 8 64 5 78 -4 8 -4
11 -3 10 4 -2 8 16 13 57 14 39 1 65 6 73 16 8 8 11 10 8 4 -3 -7 1 -15 10
-18 8 -3 12 -2 9 4 -3 6 0 10 7 11 16 1 73 7 110 12 15 1 30 6 34 10 12 12 26
8 18 -5 -6 -9 -3 -9 9 0 9 8 21 11 27 7 5 -3 10 -1 10 5 0 6 4 9 9 5 5 -3 12
-1 16 5 4 7 13 7 26 0 15 -8 21 -7 25 4 3 8 12 12 21 9 8 -3 19 0 24 8 7 12 9
12 9 0 0 -9 4 -10 13 -3 13 10 64 22 113 25 22 1 30 6 26 16 -4 10 1 12 16 7
11 -4 23 -2 27 4 3 6 11 8 16 5 5 -4 9 -1 9 6 0 10 3 10 12 1 9 -9 16 -8 30 5
10 9 18 12 18 8 0 -4 10 0 22 11 12 10 18 13 14 7 -4 -7 -2 -13 3 -13 6 0 11
5 11 11 0 6 7 8 16 5 8 -3 12 -2 9 4 -3 6 1 11 9 11 9 1 19 3 24 4 4 2 17 6
30 10 12 4 22 12 22 19 0 6 4 4 10 -4 8 -12 10 -12 16 3 3 9 10 15 14 12 5 -3
11 -1 15 4 3 6 12 8 21 4 9 -3 14 0 12 8 -2 9 5 14 19 13 13 -1 20 3 16 9 -3
5 0 8 7 5 8 -2 22 4 32 14 10 10 25 18 33 18 8 0 15 5 15 11 0 5 5 7 10 4 6
-3 10 -1 10 5 0 7 7 9 17 6 10 -4 14 -4 11 0 -4 3 0 13 8 21 8 9 17 13 20 10
3 -3 19 8 37 24 17 16 33 27 35 24 7 -6 30 19 25 28 -2 4 2 7 10 7 8 0 27 16
41 35 15 20 31 33 35 31 4 -3 16 9 26 25 11 16 26 29 33 29 7 0 10 5 7 10 -3
6 1 13 9 16 9 3 14 10 11 14 -3 5 4 15 15 23 11 7 17 17 13 20 -3 4 -1 7 6 7
7 0 9 5 6 10 -3 6 1 13 9 16 9 3 16 12 16 20 0 8 5 14 11 14 5 0 7 5 3 12 -4
6 1 17 11 25 14 9 15 13 4 13 -11 1 -11 3 2 13 9 7 16 16 16 20 1 4 4 18 8 30
9 27 13 42 21 84 3 18 9 31 13 29 3 -2 6 9 7 25 1 18 -3 26 -10 22 -7 -5 -7
-2 0 8 7 8 12 44 11 80 0 36 3 71 7 77 4 7 3 12 -3 12 -5 0 -10 8 -10 18 1 32
-8 93 -15 99 -3 3 0 13 7 21 9 13 9 14 0 8 -9 -5 -13 1 -13 18 0 14 -4 26 -8
26 -4 0 -9 8 -10 18 -5 49 -22 103 -32 97 -3 -2 -6 9 -5 25 1 16 -3 28 -9 27
-6 -1 -10 4 -9 11 2 6 -2 12 -7 12 -5 0 -9 3 -9 7 3 19 -2 33 -17 47 -9 9 -11
16 -4 16 6 0 8 5 5 10 -4 6 -11 7 -17 4 -6 -4 -8 -2 -4 4 3 6 0 16 -7 24 -8 7
-12 19 -9 26 2 6 -1 12 -7 12 -6 0 -11 7 -11 16 0 8 -5 12 -11 9 -6 -4 -9 0
-7 11 2 12 -2 18 -10 16 -8 -1 -11 2 -8 7 4 5 -1 17 -10 25 -8 9 -13 16 -9 16
4 0 0 7 -7 15 -30 33 -38 45 -38 55 0 5 -4 10 -10 10 -5 0 -10 7 -10 15 0 8
-5 15 -11 15 -5 0 -8 3 -6 8 6 10 -30 42 -39 34 -4 -4 -4 -1 0 6 4 7 -1 22
-13 35 -59 64 -71 79 -66 88 3 5 -1 6 -9 3 -9 -3 -16 -1 -16 5 0 7 -11 23 -25
37 -14 14 -25 30 -25 36 0 5 -7 7 -16 4 -8 -3 -12 -2 -9 4 3 6 1 10 -5 10 -6
0 -9 4 -6 9 3 5 -1 12 -10 15 -8 3 -12 10 -9 16 3 5 -1 10 -10 10 -8 0 -18 7
-21 15 -4 8 -10 12 -15 9 -5 -3 -9 1 -9 8 0 15 -35 48 -50 48 -6 0 -9 3 -9 8
3 18 -2 33 -9 28 -5 -3 -23 9 -40 27 -62 64 -102 97 -119 97 -14 0 -15 2 -4 9
11 7 9 10 -8 16 -11 3 -21 13 -21 21 0 8 -4 12 -10 9 -5 -3 -10 -1 -10 5 0 6
-8 14 -17 17 -10 4 -28 16 -39 28 -37 35 -64 55 -74 55 -6 0 -10 7 -10 16 0 8
-4 13 -9 10 -12 -8 -33 19 -23 29 4 5 1 5 -6 1 -8 -5 -21 1 -33 15 -10 12 -19
18 -19 14 0 -4 -8 2 -19 13 -10 12 -22 22 -27 22 -5 0 -23 14 -41 30 -18 17
-39 30 -48 30 -9 0 -13 5 -10 10 3 6 -1 10 -9 10 -9 0 -16 5 -16 10 0 6 -6 10
-14 10 -8 0 -17 7 -20 16 -4 9 -9 14 -12 11 -4 -3 -18 5 -32 19 -25 22 -31 25
-48 23 -4 0 -12 10 -18 22 -6 12 -20 23 -31 25 -11 2 -21 8 -23 14 -2 5 -8 8
-13 4 -5 -3 -9 0 -9 6 0 6 -4 8 -10 5 -5 -3 -10 1 -10 10 0 9 -4 13 -10 10 -5
-3 -10 -1 -10 5 0 6 -4 8 -10 5 -5 -3 -10 -1 -10 5 0 6 -4 8 -10 5 -5 -3 -10
1 -10 9 0 9 -3 15 -7 14 -17 -3 -64 23 -58 32 3 5 0 7 -8 4 -8 -3 -17 2 -21
11 -3 9 -10 14 -15 11 -4 -3 -19 3 -31 14 -12 11 -27 17 -31 14 -5 -3 -9 2 -9
11 0 9 -4 13 -10 10 -5 -3 -10 -1 -10 5 0 6 -4 8 -10 5 -5 -3 -10 -2 -10 3 0
5 -13 15 -30 22 -16 7 -30 17 -30 22 0 5 -4 6 -10 3 -5 -3 -10 -1 -10 5 0 7
-6 10 -13 7 -8 -3 -20 3 -28 14 -7 10 -19 19 -25 19 -7 0 -15 6 -17 13 -4 9
-6 9 -6 -2 -1 -8 -9 -5 -22 10 -11 13 -18 17 -14 9 4 -8 -1 -6 -9 4 -9 11 -16
16 -16 12 0 -4 -7 0 -16 9 -9 9 -29 19 -45 22 -15 3 -30 11 -33 19 -3 8 -12
14 -19 14 -28 0 -54 35 -60 80 -4 25 -9 63 -13 85 -4 22 -7 50 -7 62 -1 12 -5
19 -10 16 -5 -3 -7 0 -5 8 3 8 -1 26 -8 41 -8 15 -15 39 -16 53 -1 14 -6 25
-10 25 -4 0 -8 9 -8 21 0 13 -4 18 -12 13 -7 -5 -8 -3 -4 5 5 7 0 21 -11 33
-12 14 -13 18 -3 13 13 -8 13 -7 0 11 -8 10 -21 25 -27 32 -7 7 -13 17 -13 22
0 5 -11 20 -25 34 -14 14 -25 29 -25 35 0 5 -6 12 -12 14 -10 4 -10 6 0 6 6 1
12 6 12 12 0 5 -6 7 -12 3 -10 -6 -10 -4 0 8 10 13 10 17 0 21 -10 4 -10 8 2
16 13 10 13 12 0 21 -13 9 -13 10 0 10 13 0 13 1 0 10 -13 9 -13 10 0 10 13 0
13 1 0 10 -13 9 -13 10 0 10 13 0 13 1 0 10 -13 9 -13 10 0 10 13 0 13 1 0 10
-13 9 -13 10 0 10 13 0 13 1 0 10 -13 9 -13 11 0 20 13 9 13 11 0 20 -13 9
-13 10 0 10 13 0 13 1 0 10 -13 9 -13 11 0 20 13 9 13 11 0 20 -13 9 -13 10 0
10 13 0 13 1 0 10 -13 9 -13 10 0 10 13 0 13 1 0 10 -13 9 -13 10 0 10 13 0
13 1 0 10 -13 9 -13 10 0 10 13 0 13 1 0 10 -13 9 -13 10 0 10 13 0 13 1 0 10
-13 9 -13 11 0 20 13 9 13 11 0 20 -13 9 -13 10 0 10 13 0 13 1 0 10 -13 9
-13 11 0 20 13 9 13 10 0 10 -13 0 -13 1 0 10 13 9 13 11 0 20 -13 9 -13 10 0
10 13 0 13 1 0 10 -13 9 -13 11 0 20 13 9 13 11 0 20 -13 9 -13 10 0 10 13 0
13 1 0 10 -13 9 -13 10 0 10 13 0 13 1 0 10 -13 9 -13 10 0 10 13 0 13 1 0 10
-13 9 -13 10 0 10 13 0 13 1 0 10 -13 9 -13 10 0 10 13 0 13 1 0 10 -13 9 -13
11 0 20 13 9 13 11 0 20 -13 9 -13 10 0 10 13 0 13 1 0 10 -13 9 -13 11 0 20
13 9 13 11 0 20 -13 9 -13 10 0 10 13 0 13 1 0 10 -13 9 -13 10 0 10 13 0 13
1 0 10 -13 9 -13 10 0 10 13 0 13 1 0 10 -13 9 -13 10 0 10 13 0 13 1 0 10
-13 9 -13 10 0 10 13 0 13 1 0 10 -13 9 -13 11 0 20 13 9 13 11 0 20 -13 9
-13 10 0 10 13 0 13 1 0 10 -13 9 -13 11 0 20 13 9 13 10 0 10 -13 0 -13 1 0
11 11 8 12 12 2 16 -17 7 -5 23 19 23 11 0 19 7 19 16 0 8 4 13 9 9 5 -3 12
-1 16 5 4 6 11 7 17 4 7 -5 9 -1 5 9 -3 9 -3 16 1 14 4 -1 21 10 37 26 16 15
25 27 20 27 -6 0 -6 3 0 8 17 12 49 65 34 56 -11 -6 -12 -5 -2 8 7 8 10 18 6
21 -3 4 -2 7 4 7 5 0 8 29 6 73 -4 92 -5 97 -15 97 -4 0 -8 3 -7 8 3 20 -15
52 -30 52 -14 0 -14 2 -1 10 13 9 7 14 -13 11 -4 0 -6 2 -5 6 4 13 -50 65 -61
59 -6 -4 -16 2 -23 14 -7 11 -21 20 -30 20 -10 0 -18 5 -18 11 0 8 -4 8 -14 0
-8 -7 -15 -8 -18 -2 -5 15 -124 16 -142 1 -9 -7 -16 -9 -16 -6 0 4 -10 1 -22
-6 -13 -7 -26 -11 -30 -10 -5 1 -8 -2 -8 -8 0 -5 -5 -10 -11 -10 -6 0 -25 -16
-43 -35 -18 -19 -36 -31 -40 -28 -4 4 -4 1 -1 -8 3 -8 -2 -24 -12 -35 -18 -20
-25 -37 -26 -61 0 -7 -3 -13 -7 -13 -9 0 -6 -113 4 -129 6 -10 5 -12 -2 -7 -8
5 -10 2 -6 -8 3 -9 11 -16 18 -16 7 0 6 -3 -2 -9 -11 -7 -11 -11 2 -24 9 -8
16 -20 16 -26 0 -6 5 -11 11 -11 5 0 7 -4 4 -10 -3 -5 -1 -10 5 -10 6 0 8 -4
5 -10 -3 -5 -1 -10 4 -10 6 0 25 -15 42 -32 17 -18 34 -32 37 -32 4 1 6 -2 4
-8 -1 -5 2 -7 7 -4 5 3 16 3 24 0 18 -6 30 -44 15 -44 -6 0 -5 -6 2 -15 10
-12 10 -15 -1 -15 -11 0 -11 -2 1 -10 11 -7 11 -10 2 -10 -9 0 -10 -5 -3 -19
6 -10 9 -20 7 -22 -9 -9 -14 -69 -5 -63 5 3 9 0 9 -5 0 -6 -6 -11 -12 -11 -10
0 -9 -3 1 -9 11 -7 11 -9 0 -14 -8 -3 -9 -6 -2 -6 6 -1 9 -9 7 -18 -9 -44 -11
-102 -3 -97 5 3 9 0 9 -5 0 -6 -6 -11 -12 -11 -10 0 -9 -3 1 -9 11 -7 11 -9 0
-14 -8 -3 -9 -6 -4 -6 7 -1 9 -16 7 -36 -2 -19 1 -42 8 -50 10 -12 9 -16 -4
-21 -12 -5 -13 -10 -5 -25 7 -14 6 -19 -3 -19 -9 0 -9 -3 2 -10 11 -7 11 -10
2 -10 -7 0 -10 -5 -7 -11 11 -17 13 -59 2 -59 -5 0 -3 -8 4 -17 12 -15 12 -16
-6 -10 -20 7 -20 7 -1 -8 11 -8 14 -15 7 -15 -7 0 -9 -5 -6 -11 11 -17 13 -59
2 -59 -5 0 -4 -7 3 -15 10 -12 10 -15 -1 -15 -11 0 -11 -2 1 -10 11 -7 11 -10
2 -10 -7 0 -10 -5 -7 -11 11 -17 13 -59 3 -59 -5 0 -6 -4 -3 -10 4 -6 -25 -10
-79 -10 -79 0 -111 9 -86 25 8 5 7 11 -1 21 -9 11 -8 14 2 14 12 0 12 2 0 9
-9 6 -10 11 -3 15 15 9 3 38 -12 29 -8 -4 -8 -3 -1 5 11 12 7 95 -4 88 -4 -3
-7 4 -7 14 0 10 3 17 7 14 8 -4 6 12 -4 36 -4 8 -8 26 -11 40 -2 14 -10 39
-17 55 -7 17 -11 34 -11 38 1 4 -4 20 -13 36 -8 16 -11 31 -8 35 4 3 1 6 -6 6
-8 0 -11 7 -7 15 3 8 1 15 -4 15 -6 0 -10 9 -10 19 0 10 -7 21 -15 25 -8 3
-12 11 -9 19 3 8 -2 20 -10 27 -9 7 -13 16 -10 21 3 5 0 9 -5 9 -6 0 -11 7
-11 15 0 8 -4 15 -10 15 -5 0 -10 8 -10 18 0 10 -9 24 -19 32 -11 7 -18 17
-15 22 3 4 0 8 -6 8 -6 0 -9 4 -6 8 3 5 -4 15 -15 22 -10 8 -19 19 -19 24 0 5
-9 17 -21 27 -12 10 -18 23 -13 30 4 8 3 9 -5 5 -6 -4 -14 0 -17 8 -3 9 -10
13 -15 10 -5 -3 -9 -2 -8 3 4 23 -2 35 -17 29 -8 -3 -12 -2 -9 3 3 5 -4 16
-15 24 -11 7 -17 17 -13 20 3 4 -1 7 -10 7 -9 0 -17 6 -17 14 0 8 -5 18 -12
22 -7 5 -8 3 -3 -7 8 -12 6 -12 -8 0 -9 7 -14 17 -11 22 3 5 -2 9 -10 9 -9 0
-21 9 -28 20 -7 11 -18 20 -24 20 -6 0 -18 8 -25 18 -13 16 -12 16 6 2 17 -12
18 -12 7 0 -7 8 -17 16 -22 16 -6 1 -15 2 -21 3 -5 0 -7 6 -4 11 3 6 -4 10
-15 10 -16 0 -20 5 -16 15 3 8 2 14 -2 13 -17 -4 -52 14 -46 24 4 6 2 8 -3 5
-6 -4 -22 4 -37 18 -14 13 -26 19 -26 13 0 -7 -6 -4 -13 7 -9 11 -19 15 -27
10 -9 -6 -11 -4 -6 4 5 8 0 14 -13 18 -12 3 -21 10 -21 15 0 6 -7 8 -15 4 -8
-3 -15 -1 -15 4 0 6 -7 10 -16 10 -8 0 -12 5 -9 10 3 6 -3 10 -14 10 -12 0
-21 4 -21 10 0 5 -7 7 -15 4 -8 -4 -15 -1 -15 7 0 7 -3 10 -6 6 -4 -3 -13 1
-21 9 -8 8 -19 12 -24 9 -5 -4 -9 -1 -9 5 0 6 -4 9 -9 6 -5 -3 -14 1 -21 9 -7
8 -23 15 -36 15 -12 0 -26 5 -30 11 -3 6 -15 9 -25 6 -10 -3 -17 0 -16 5 1 6
-9 12 -23 14 -14 3 -27 9 -28 14 -2 6 -8 7 -13 4 -6 -3 -17 0 -26 8 -14 11
-16 11 -8 -2 5 -10 1 -8 -13 4 -12 10 -28 16 -37 13 -8 -4 -15 -2 -15 4 0 6
-4 7 -10 4 -5 -3 -10 -2 -10 2 0 5 -14 9 -31 9 -17 1 -35 8 -40 15 -7 12 -9
11 -9 -1 0 -11 -2 -12 -8 -3 -4 7 -25 14 -45 15 -20 2 -37 6 -37 9 0 4 -18 6
-40 6 -22 0 -43 3 -47 8 -5 4 -1 5 7 0 9 -5 12 -4 7 1 -5 5 -25 9 -45 9 -20 1
-48 7 -62 15 -24 13 -24 12 -10 -5 14 -17 14 -17 -6 -7 -12 6 -24 8 -28 5 -3
-3 -6 -2 -6 3 0 5 -21 9 -47 9 -27 -1 -52 1 -57 4 -13 6 -426 8 -426 1z
m-1864 -1152 c5 -7 3 -8 -6 -3 -9 5 -11 4 -6 -3 5 -8 13 -9 25 -2 10 5 21 6
25 3 3 -3 6 -1 6 6 0 8 5 7 16 -4 10 -10 13 -22 8 -33 -4 -9 -6 -21 -5 -26 1
-4 -2 -13 -7 -20 -4 -6 -9 -24 -11 -41 -2 -16 -10 -34 -18 -38 -10 -6 -11 -12
-4 -21 11 -13 10 -34 -2 -53 -5 -7 -4 -13 2 -13 7 0 7 -8 1 -26 -13 -33 -13
-37 3 -28 8 6 8 3 -1 -9 -8 -9 -11 -25 -7 -38 5 -16 4 -19 -5 -14 -9 6 -11 4
-5 -6 5 -7 10 -22 10 -31 1 -13 -2 -15 -11 -7 -8 7 -14 7 -19 -1 -3 -6 -11 -8
-16 -4 -19 11 -168 10 -158 -2 6 -7 1 -10 -14 -9 -12 1 -31 -5 -41 -14 -11 -9
-16 -10 -12 -4 4 7 -13 1 -37 -15 -25 -15 -43 -30 -41 -34 2 -4 -5 -9 -15 -13
-11 -3 -23 -15 -26 -26 -4 -10 -11 -17 -16 -14 -8 5 -13 -10 -6 -18 5 -6 -28
-35 -35 -30 -4 2 -5 -4 -1 -13 4 -11 2 -15 -4 -11 -10 6 -27 -27 -24 -45 1 -5
-4 -8 -10 -8 -5 0 -8 -4 -4 -10 3 -5 -3 -18 -15 -30 -12 -12 -15 -20 -7 -21
10 0 10 -2 0 -6 -7 -2 -13 -13 -13 -23 0 -10 -5 -22 -10 -25 -6 -4 -8 -10 -5
-15 3 -5 1 -11 -4 -15 -5 -3 -8 -14 -6 -25 2 -12 0 -18 -5 -15 -5 3 -9 -3 -9
-12 -2 -59 -5 -81 -12 -78 -4 3 -9 -6 -11 -20 -3 -13 -1 -22 3 -19 14 9 10
-10 -8 -35 -9 -14 -12 -21 -6 -18 7 4 10 -4 9 -23 0 -17 -5 -30 -10 -30 -4 0
-3 -7 4 -15 7 -8 9 -15 4 -15 -5 0 -9 -22 -9 -50 0 -27 4 -50 9 -50 5 0 3 -7
-4 -15 -10 -12 -10 -15 0 -15 10 0 10 -3 0 -15 -8 -9 -9 -15 -2 -15 6 0 9 -10
7 -21 -2 -12 0 -30 6 -40 7 -14 6 -19 -3 -19 -8 0 -9 -3 -3 -8 6 -4 10 -19 10
-34 -1 -16 2 -28 5 -28 3 0 7 -12 8 -26 1 -15 8 -34 15 -42 10 -13 9 -14 -3
-7 -12 6 -13 5 -2 -6 6 -7 12 -23 12 -36 0 -13 5 -23 11 -23 5 0 8 -4 5 -8 -3
-5 2 -22 10 -38 9 -16 18 -38 20 -49 2 -11 8 -21 14 -23 6 -2 8 -8 4 -13 -3
-5 0 -9 5 -9 6 0 11 -5 11 -12 0 -6 10 -23 23 -36 12 -14 16 -22 8 -17 -9 5
-12 4 -7 -3 4 -7 15 -12 24 -12 14 0 14 -2 3 -9 -11 -7 -9 -10 7 -15 11 -4 22
-16 25 -28 4 -13 11 -19 21 -15 9 4 15 1 13 -6 -1 -7 4 -11 11 -9 6 1 12 -5
12 -15 0 -9 3 -14 6 -10 3 3 16 -3 27 -14 12 -11 27 -17 34 -15 7 3 13 1 13
-5 0 -6 5 -7 10 -4 6 3 10 2 10 -3 0 -5 10 -8 23 -7 12 1 32 -2 44 -6 13 -5
25 -4 28 1 3 6 16 5 33 -1 29 -11 32 -11 47 1 6 5 23 -3 40 -17 17 -14 24 -22
16 -18 -11 6 -12 2 -7 -19 5 -21 4 -26 -6 -20 -10 6 -10 5 -2 -7 6 -8 10 -24
8 -36 -2 -13 1 -23 6 -23 7 0 7 -7 -1 -21 -8 -15 -8 -19 0 -15 7 4 11 -1 11
-14 0 -11 8 -33 18 -47 13 -21 14 -25 2 -18 -12 7 -13 6 -3 -7 7 -8 9 -19 5
-23 -4 -5 -1 -5 6 -1 6 4 13 2 13 -3 1 -6 2 -16 3 -21 0 -6 8 -15 16 -20 12
-8 13 -10 1 -10 -12 0 -11 -3 2 -17 51 -56 56 -63 45 -64 -7 0 -3 -4 10 -9 12
-6 22 -18 22 -30 0 -11 3 -19 8 -19 18 3 32 -2 30 -10 -3 -10 61 -71 74 -71 5
0 6 -4 3 -10 -3 -5 1 -10 9 -10 9 0 16 -4 16 -10 0 -5 7 -10 16 -10 8 0 13 -4
10 -9 -3 -5 10 -16 29 -25 19 -9 37 -21 40 -26 4 -6 10 -8 15 -5 5 3 12 0 16
-6 5 -8 3 -9 -6 -4 -9 6 -11 4 -6 -4 5 -7 15 -10 23 -7 8 3 11 2 8 -3 -3 -5 4
-12 15 -16 11 -3 20 -10 20 -15 0 -5 7 -7 15 -4 8 4 15 1 15 -5 0 -6 7 -11 15
-11 8 0 15 -4 15 -10 0 -5 9 -10 20 -10 11 0 20 -5 20 -11 0 -5 6 -7 13 -3 6
4 3 -2 -8 -12 -10 -11 -26 -20 -35 -21 -45 -6 -79 -16 -74 -24 3 -5 -3 -9 -13
-9 -11 0 -25 -6 -32 -12 -11 -11 -13 -10 -7 2 5 9 2 8 -7 -2 -16 -20 -32 -24
-21 -6 5 7 -5 3 -20 -10 -16 -12 -32 -19 -37 -16 -5 3 -9 0 -9 -7 0 -7 -2 -10
-5 -7 -3 3 -45 -15 -93 -40 -48 -24 -105 -54 -127 -65 -22 -11 -42 -24 -43
-28 -2 -5 -8 -7 -13 -3 -5 3 -9 1 -9 -4 0 -6 -13 -15 -30 -21 -16 -5 -30 -15
-30 -21 0 -6 -4 -8 -10 -5 -5 3 -10 1 -10 -5 0 -7 -7 -10 -15 -6 -8 3 -14 2
-12 -2 1 -4 -2 -8 -6 -9 -4 -1 -17 -12 -28 -25 -11 -13 -18 -16 -14 -8 4 8 -1
6 -9 -4 -9 -11 -16 -14 -16 -8 0 7 -9 12 -20 12 -11 0 -20 4 -20 9 0 8 -40 27
-48 22 -1 -1 -13 10 -26 24 -13 13 -26 21 -30 17 -4 -4 -14 1 -21 11 -7 10
-22 19 -33 20 -11 0 -18 5 -16 9 3 4 -2 8 -10 8 -9 0 -16 3 -16 8 0 4 -14 13
-30 20 -17 8 -27 18 -24 24 4 6 3 9 -2 6 -5 -3 -25 3 -44 13 -19 11 -30 19
-25 19 5 0 -8 10 -30 21 -22 12 -43 27 -47 33 -4 6 -8 7 -8 2 0 -5 -8 1 -19
12 -10 12 -21 19 -25 15 -3 -3 -6 -1 -6 6 0 7 -4 9 -10 6 -6 -3 -10 -1 -10 4
0 6 -7 11 -16 11 -8 0 -13 4 -10 9 6 8 -43 36 -57 32 -5 -1 -6 3 -3 8 4 5 -7
15 -24 23 -16 7 -30 18 -30 25 0 7 -7 10 -17 6 -11 -4 -14 -3 -9 5 4 7 2 12
-4 12 -15 0 -41 26 -34 33 3 3 -3 3 -15 0 -16 -4 -21 -1 -21 15 0 16 -5 20
-20 17 -11 -2 -18 0 -15 6 4 5 -1 9 -9 9 -9 0 -16 6 -16 14 0 8 -9 18 -20 21
-11 3 -20 13 -20 21 0 8 -5 14 -11 14 -5 0 -7 -6 -3 -12 4 -7 -12 6 -35 29
-24 24 -47 40 -52 37 -5 -3 -6 3 -2 12 4 12 3 15 -5 10 -7 -4 -12 -3 -12 2 0
5 -9 12 -20 15 -11 3 -20 12 -20 21 0 9 -5 16 -11 16 -5 0 -51 42 -102 93 -51
50 -96 91 -100 89 -5 -1 -6 2 -2 7 3 6 -4 15 -16 21 -11 7 -18 14 -15 17 7 7
-17 32 -26 26 -5 -2 -8 1 -8 7 0 6 -10 21 -22 34 -35 34 -73 88 -71 97 2 5 -4
6 -12 3 -10 -4 -15 0 -15 11 0 10 -11 28 -26 41 -14 13 -22 24 -19 24 3 0 0 6
-7 14 -7 8 -15 12 -18 11 -3 -2 -7 5 -7 16 -1 10 -9 26 -17 35 -9 9 -14 20
-10 25 3 5 2 8 -3 7 -4 -2 -9 1 -10 6 -1 5 -7 12 -15 17 -7 5 -13 13 -13 19 0
6 -6 14 -13 19 -8 5 -13 11 -13 15 3 19 0 27 -8 22 -5 -3 -8 2 -7 12 0 9 -4
16 -11 15 -7 -2 -10 4 -7 12 4 8 1 15 -5 15 -6 0 -8 7 -5 15 4 8 1 15 -6 15
-6 0 -8 5 -5 10 3 6 1 10 -4 10 -6 0 -11 9 -11 21 0 11 -4 17 -10 14 -5 -3 -7
0 -4 8 3 8 0 18 -5 22 -6 3 -9 11 -6 16 4 5 1 9 -5 9 -7 0 -10 7 -6 15 3 8 1
15 -5 15 -6 0 -7 5 -4 10 3 6 1 10 -6 10 -7 0 -9 3 -6 7 4 3 1 13 -6 21 -10
13 -9 14 1 8 12 -7 12 -4 1 15 -14 26 -19 41 -22 76 -1 13 -4 23 -7 23 -3 0
-6 8 -7 18 -1 9 -3 38 -4 65 -2 26 -8 47 -13 47 -6 0 -5 5 2 12 7 7 8 17 2 29
-7 12 -6 20 1 25 8 4 7 9 -2 14 -10 7 -10 11 0 24 11 13 11 16 0 16 -10 0 -10
3 -3 8 7 4 11 28 10 54 0 25 2 44 7 41 7 -4 11 11 8 35 -1 6 4 12 11 12 11 0
11 2 0 8 -10 7 -7 15 10 37 12 16 17 26 10 21 -6 -4 -12 -2 -12 3 0 6 5 11 10
11 6 0 10 9 10 21 0 11 4 18 9 14 6 -3 8 4 6 15 -2 11 1 20 6 20 6 0 7 5 4 10
-3 6 -1 10 5 10 6 0 16 14 21 30 6 17 15 30 21 30 5 0 6 5 3 10 -3 6 -1 10 5
10 6 0 15 11 22 25 6 13 15 22 19 19 5 -3 9 4 9 16 0 12 5 18 10 15 9 -6 14 8
11 28 -1 5 3 6 8 3 5 -4 19 7 31 24 12 17 26 28 31 25 8 -6 13 9 10 28 -1 5 3
6 8 2 6 -3 25 8 42 24 17 17 36 28 42 24 6 -4 8 0 4 11 -4 10 -3 15 3 11 6 -3
10 -1 10 4 0 6 7 11 15 11 15 0 24 6 58 36 7 6 29 17 50 25 20 7 37 17 37 22
0 4 5 5 10 2 6 -3 10 -1 10 4 0 6 6 10 13 8 6 -1 11 3 10 10 -2 7 6 10 16 8
10 -2 27 4 37 13 11 10 29 17 41 16 15 -1 20 3 15 14 -3 10 -1 13 6 8 7 -4 26
-1 42 8 19 9 28 10 23 3 -3 -7 3 -3 15 7 12 11 22 15 22 11 0 -5 5 -4 12 3 7
7 22 12 34 12 13 0 26 5 29 10 4 6 11 8 16 5 5 -4 9 -2 9 3 0 5 11 8 25 7 14
-2 25 0 25 5 0 7 72 24 98 23 6 0 12 3 12 9 0 5 5 6 10 3 6 -3 10 0 10 7 0 10
3 9 9 -1 7 -11 13 -12 23 -4 7 6 21 9 31 8 9 -2 15 1 12 5 -3 5 -1 11 5 15 5
3 10 2 10 -3 0 -10 30 -9 48 2 6 4 17 4 24 0 6 -4 8 -3 5 3 -4 6 4 11 21 12
64 2 102 6 102 12 0 3 10 5 23 4 12 -1 25 3 29 9 5 7 8 6 8 -3 0 -11 3 -11 15
-1 12 10 15 10 15 -1 0 -11 2 -11 8 -2 4 7 18 11 30 8 12 -2 24 0 27 4 2 5 19
7 36 5 18 -2 38 1 46 7 10 9 13 8 13 0 0 -7 5 -9 13 -4 6 4 30 8 52 9 22 1 63
3 91 4 27 2 55 1 61 -3 6 -4 13 0 17 8 7 18 12 19 22 3z m2080 3 c-8 -12 15
-19 42 -12 13 3 51 4 85 1 47 -4 65 -1 75 10 8 8 11 10 8 4 -3 -7 1 -14 9 -18
8 -3 15 -2 15 3 0 12 33 9 42 -4 5 -6 8 -4 8 5 0 13 1 13 10 0 7 -11 10 -11
10 -2 0 7 5 10 10 7 6 -4 71 -7 146 -8 74 0 137 -5 140 -9 3 -5 11 -5 17 -1
17 10 67 11 67 1 0 -5 9 -4 19 2 13 7 22 7 26 0 4 -7 13 -6 27 1 18 10 20 9
14 -6 -5 -15 -4 -16 9 -5 8 7 15 9 15 5 0 -4 8 -1 17 6 13 11 15 11 9 1 -5 -9
-3 -13 5 -11 8 1 36 1 62 0 34 -1 46 -4 41 -13 -5 -7 -3 -8 7 -2 18 11 39 14
39 6 0 -4 25 -8 56 -8 32 -1 60 -7 64 -14 5 -8 9 -6 14 7 7 16 9 16 19 3 7 -9
27 -15 45 -15 19 0 37 -6 42 -14 5 -9 9 -10 14 -2 5 8 14 6 30 -5 13 -8 37
-17 52 -20 16 -3 31 -10 35 -15 3 -6 8 -10 10 -9 8 5 99 -43 99 -51 0 -5 7 -9
16 -9 11 0 14 -5 10 -16 -4 -11 -2 -15 8 -11 9 4 17 -2 21 -14 4 -10 11 -19
17 -19 5 0 7 -7 4 -16 -3 -8 -2 -12 4 -9 8 5 29 -29 34 -55 1 -3 5 -11 9 -17
5 -7 6 -17 2 -22 -3 -5 -1 -12 5 -16 6 -4 8 -10 5 -15 -3 -5 -1 -11 3 -14 5
-3 8 -32 8 -66 -1 -33 3 -60 7 -60 4 0 3 -9 -3 -20 -8 -15 -8 -20 1 -20 8 0 8
-4 1 -12 -5 -7 -6 -22 -2 -33 4 -11 3 -28 -2 -37 -6 -12 -5 -18 3 -18 8 0 8
-4 -1 -15 -10 -12 -10 -15 1 -15 9 0 10 -3 4 -8 -12 -9 -15 -52 -3 -52 5 0 4
-9 -2 -19 -7 -14 -7 -22 0 -26 6 -4 7 -12 3 -18 -8 -14 -8 -75 1 -84 3 -3 1
-12 -5 -20 -9 -10 -8 -13 2 -13 9 0 10 -3 4 -8 -12 -9 -15 -52 -3 -52 5 0 4
-9 -2 -19 -7 -14 -7 -22 0 -26 6 -4 7 -11 3 -18 -8 -14 -9 -58 0 -80 3 -9 1
-19 -5 -23 -7 -4 -6 -9 3 -15 8 -5 9 -9 3 -9 -10 0 -10 -67 0 -78 3 -2 1 -13
-5 -23 -7 -14 -6 -19 2 -19 8 0 8 -4 -1 -15 -10 -12 -10 -15 1 -15 9 0 10 -3
4 -8 -12 -9 -15 -52 -3 -52 5 0 4 -9 -2 -19 -7 -14 -7 -22 0 -26 6 -4 7 -12 3
-18 -8 -14 -8 -75 1 -84 3 -3 1 -12 -5 -20 -9 -10 -8 -13 2 -13 9 0 10 -3 4
-8 -12 -8 -15 -52 -4 -52 5 0 4 -12 -2 -27 -7 -20 -6 -28 3 -35 10 -6 10 -8
-1 -8 -8 0 -12 -3 -8 -6 3 -4 0 -19 -9 -35 -8 -17 -10 -29 -4 -29 6 0 6 -7 -2
-19 -7 -11 -16 -18 -20 -15 -4 3 -5 -2 -2 -10 4 -10 1 -16 -7 -16 -7 0 -9 -3
-6 -6 4 -4 -3 -15 -15 -25 -11 -11 -18 -19 -14 -19 4 0 1 -6 -6 -14 -7 -8 -17
-11 -22 -8 -5 3 -6 0 -2 -6 3 -6 -5 -22 -19 -36 -14 -14 -25 -22 -25 -19 0 3
-9 -4 -20 -17 -11 -13 -20 -20 -20 -17 0 3 -14 -7 -32 -23 -17 -16 -35 -27
-40 -24 -4 3 -8 1 -8 -5 0 -6 -8 -7 -17 -4 -16 6 -17 5 -3 -12 14 -17 13 -18
-2 -12 -10 3 -24 0 -33 -9 -8 -9 -15 -12 -15 -8 0 3 -7 1 -15 -6 -8 -7 -15 -9
-15 -4 0 5 -4 3 -9 -5 -5 -8 -16 -16 -25 -17 -9 -1 -23 -10 -32 -19 -12 -12
-19 -13 -24 -5 -5 8 -9 7 -14 -5 -3 -9 -12 -15 -19 -12 -6 2 -18 -3 -25 -12
-10 -12 -12 -13 -6 -1 7 13 6 13 -10 1 -10 -8 -27 -16 -38 -16 -11 -1 -25 -9
-30 -18 -7 -13 -13 -15 -29 -7 -13 8 -19 8 -19 0 0 -6 -4 -8 -10 -5 -5 3 -10
2 -10 -3 0 -5 -10 -9 -22 -8 -14 1 -22 -4 -20 -12 2 -10 -2 -10 -18 -2 -14 8
-20 8 -20 0 0 -6 -4 -8 -10 -5 -5 3 -10 0 -10 -7 0 -9 -3 -9 -10 2 -7 11 -10
11 -10 2 0 -7 -4 -10 -10 -7 -5 3 -10 3 -10 -2 0 -8 -9 -10 -77 -15 -18 -2
-33 -6 -33 -10 0 -5 -5 -8 -11 -8 -5 0 -7 5 -3 11 3 6 -4 4 -17 -4 -13 -9 -38
-15 -56 -13 -17 1 -30 -1 -28 -4 4 -7 -20 -10 -92 -13 -18 -1 -33 -5 -33 -8 0
-4 -13 -5 -30 -4 -16 1 -30 -2 -30 -8 0 -7 -4 -7 -12 1 -8 8 -15 9 -25 1 -7
-7 -13 -8 -13 -4 0 4 -6 2 -14 -4 -11 -9 -16 -9 -22 0 -5 8 -3 9 6 4 9 -5 11
-4 6 4 -6 9 -11 9 -22 0 -8 -6 -50 -12 -94 -13 -43 -1 -82 -5 -86 -9 -4 -4
-13 -2 -20 4 -9 7 -19 7 -35 -1 -14 -8 -19 -8 -15 -1 9 14 0 14 -26 0 -16 -9
-19 -8 -12 3 6 11 5 11 -8 0 -9 -7 -18 -9 -21 -5 -3 4 -73 8 -155 8 -83 0
-150 2 -150 5 1 18 -4 21 -17 10 -12 -10 -18 -10 -30 0 -12 10 -15 10 -15 0 0
-9 -4 -9 -13 -2 -6 6 -26 9 -44 8 -18 -1 -29 2 -26 8 4 5 -6 7 -25 3 -17 -4
-34 -2 -37 3 -4 6 -11 8 -16 4 -6 -3 -18 -3 -27 1 -9 4 -30 9 -47 10 -16 1
-30 3 -30 4 0 1 -13 4 -29 6 -16 2 -36 7 -45 11 -19 8 -60 16 -84 15 -9 0 -15
4 -12 8 2 5 -7 7 -20 5 -14 -1 -25 2 -25 7 0 4 -7 6 -15 3 -8 -4 -15 -2 -15 3
0 5 -15 9 -34 8 -19 0 -32 3 -30 7 3 4 0 8 -5 8 -22 0 -26 2 -43 16 -11 10
-18 12 -23 5 -4 -8 -11 -6 -21 4 -9 8 -20 13 -25 10 -5 -4 -9 -1 -9 4 0 6 -9
11 -20 11 -11 0 -20 5 -20 10 0 6 -5 10 -11 10 -5 0 -7 -6 -4 -12 4 -7 1 -6
-7 3 -7 9 -19 14 -27 11 -8 -3 -11 0 -7 7 5 7 -1 11 -13 11 -12 0 -21 4 -21
10 0 5 -7 7 -15 4 -8 -4 -15 -1 -15 6 0 6 -4 8 -10 5 -5 -3 -10 -1 -10 4 0 6
-7 11 -15 11 -8 0 -15 4 -15 10 0 5 -7 7 -15 4 -10 -4 -15 0 -15 11 0 9 -4 14
-9 10 -6 -3 -14 3 -20 12 -5 10 -12 17 -15 16 -14 -6 -27 -2 -21 6 5 9 -32 27
-48 23 -5 -1 -6 1 -3 6 6 10 -29 42 -45 42 -6 0 -8 7 -5 16 3 8 2 13 -2 11 -4
-2 -17 6 -30 19 -12 13 -19 24 -15 24 4 0 0 5 -9 11 -10 5 -18 17 -18 25 0 8
-4 12 -10 9 -6 -3 -7 1 -4 9 3 9 1 16 -6 16 -6 0 -8 5 -5 10 3 6 1 10 -5 10
-6 0 -9 4 -5 9 3 5 1 12 -4 16 -6 3 -8 12 -4 20 3 8 1 15 -4 15 -12 0 -14
1278 -2 1302 6 11 4 18 -4 22 -9 5 -9 7 1 12 6 3 12 16 12 28 0 12 6 28 13 35
10 11 9 12 -3 6 -11 -6 -10 -3 3 12 9 11 14 23 10 26 -3 4 -1 7 6 7 7 0 9 4 6
10 -3 5 3 15 15 22 11 7 20 18 20 25 0 7 5 13 11 13 5 0 8 4 5 8 -3 4 13 19
35 32 21 14 39 28 39 32 0 5 8 8 19 8 10 0 26 10 35 23 9 12 14 16 11 10 -7
-15 11 -18 20 -3 4 6 11 8 16 5 5 -4 9 -2 9 3 0 6 7 13 16 16 8 3 12 2 9 -4
-3 -5 7 -3 21 5 15 8 31 12 36 9 4 -3 8 -1 8 5 0 5 9 8 20 6 11 -2 20 0 20 5
0 5 14 7 30 5 17 -2 30 0 30 5 0 4 11 7 25 5 14 -1 25 1 25 6 0 5 7 6 15 3 8
-4 23 0 32 7 12 10 15 10 9 2 -4 -7 -3 -13 3 -13 5 0 13 5 17 11 4 8 9 7 15
-2 8 -12 11 -11 20 1 9 12 12 13 16 1 4 -10 7 -10 13 -1 5 7 35 12 83 13 42 0
74 3 72 7 -2 3 5 6 16 6 10 0 19 -5 19 -11 0 -5 5 -3 10 5 8 12 10 12 10 1 0
-11 3 -11 17 0 15 12 16 12 8 -1 -8 -13 -7 -13 9 -1 15 13 19 13 27 0 5 -8 9
-9 9 -3 0 14 32 13 42 -1 5 -6 8 -6 8 1 0 8 36 11 120 10 66 0 120 2 120 6 0
4 14 3 30 -2 21 -6 30 -5 30 3 0 7 4 6 10 -3 5 -8 10 -10 10 -5 0 10 119 11
146 1 8 -3 14 -2 14 2 0 8 125 6 139 -2 5 -3 11 1 15 9 3 8 8 15 11 15 4 0 4
-4 1 -9z m2624 -1403 c0 -4 7 -8 16 -8 8 0 12 -4 9 -10 -3 -5 1 -10 9 -10 9 0
16 -5 16 -11 0 -5 5 -7 10 -4 6 3 10 1 10 -6 0 -7 3 -9 6 -6 4 4 18 -6 32 -21
13 -15 21 -21 16 -13 -4 8 9 2 29 -13 20 -16 34 -32 31 -37 -3 -5 1 -6 9 -3 8
3 21 -4 29 -15 8 -11 20 -21 28 -23 8 -2 23 -13 33 -25 10 -13 24 -23 32 -23
7 0 20 -10 29 -22 9 -13 14 -16 10 -8 -4 8 11 -4 33 -27 22 -24 43 -43 48 -43
4 0 16 -10 26 -22 11 -11 19 -18 19 -14 0 4 18 -11 40 -34 22 -23 40 -38 40
-33 1 4 7 -3 15 -17 8 -14 14 -21 15 -16 0 5 24 -17 54 -48 30 -31 60 -56 67
-56 7 0 9 -3 6 -6 -7 -7 50 -64 64 -64 5 0 8 -6 6 -12 -1 -7 4 -12 12 -10 12
3 12 1 1 -15 -8 -10 -11 -15 -6 -11 11 9 67 -42 59 -55 -3 -6 -2 -7 4 -4 6 4
25 -14 42 -38 18 -25 37 -45 43 -45 6 0 9 -3 5 -6 -3 -3 5 -17 19 -31 13 -13
22 -29 19 -34 -4 -5 0 -9 9 -9 8 0 20 -13 28 -30 7 -16 16 -30 20 -30 5 0 8
-5 8 -11 0 -10 19 -36 63 -89 6 -8 11 -16 9 -17 -6 -7 28 -73 38 -73 6 0 9 -4
6 -9 -3 -5 1 -14 9 -21 7 -6 12 -17 9 -25 -3 -7 0 -16 5 -20 6 -3 8 -11 5 -17
-4 -7 -2 -8 4 -4 7 4 12 2 12 -3 0 -6 0 -13 0 -16 0 -3 9 -21 20 -41 11 -19
18 -39 15 -45 -4 -5 -1 -9 5 -9 7 0 10 -7 6 -15 -3 -8 -1 -15 4 -15 6 0 9 -3
9 -7 -5 -29 2 -53 14 -47 8 5 8 2 -2 -9 -7 -9 -9 -17 -4 -17 6 0 13 -17 16
-37 3 -21 8 -47 13 -57 6 -15 4 -17 -7 -11 -12 8 -12 6 0 -8 8 -10 11 -20 8
-24 -4 -3 -2 -12 4 -20 9 -10 8 -13 0 -13 -7 0 -9 -5 -5 -12 8 -13 12 -68 4
-68 -3 0 -4 -24 -4 -52 1 -29 -2 -60 -7 -69 -5 -10 -3 -21 4 -29 9 -10 9 -11
0 -6 -12 6 -18 -11 -14 -36 0 -5 -3 -8 -7 -8 -4 0 -9 -9 -10 -20 -4 -43 -6
-50 -13 -50 -4 0 -6 -9 -4 -20 2 -11 -1 -19 -8 -17 -7 1 -11 -4 -9 -10 1 -7
-2 -13 -7 -13 -5 0 -12 -13 -16 -29 -3 -15 -15 -37 -25 -49 -10 -11 -16 -23
-13 -26 4 -3 2 -6 -4 -6 -6 0 -16 -13 -23 -30 -7 -16 -16 -27 -21 -24 -5 3 -9
-1 -9 -8 0 -7 -9 -19 -20 -26 -12 -7 -18 -17 -15 -22 3 -6 0 -10 -8 -10 -8 0
-24 -13 -37 -30 -13 -16 -28 -30 -34 -30 -6 0 -22 -13 -36 -29 -13 -17 -27
-28 -32 -25 -4 3 -8 0 -8 -6 0 -6 -5 -8 -12 -4 -8 5 -9 2 -5 -9 3 -9 3 -16 -1
-16 -25 4 -42 -2 -36 -13 5 -7 2 -9 -9 -5 -9 3 -18 0 -21 -9 -3 -8 -12 -14
-21 -14 -8 0 -15 -5 -15 -10 0 -6 -6 -9 -12 -8 -7 2 -12 -3 -10 -10 1 -8 -2
-11 -8 -7 -6 4 -17 1 -25 -5 -8 -7 -15 -9 -15 -4 0 5 -4 4 -8 -2 -8 -13 -82
-48 -95 -45 -4 0 -10 -6 -13 -14 -4 -8 -10 -15 -16 -15 -5 0 -6 4 -3 10 3 6
-1 7 -9 4 -9 -3 -16 -11 -16 -16 0 -6 -9 -8 -20 -5 -11 3 -18 1 -14 -4 5 -8
-10 -13 -20 -6 -2 1 -14 -7 -27 -18 -13 -12 -19 -14 -14 -5 8 13 6 13 -8 2 -9
-8 -21 -11 -27 -7 -5 3 -10 2 -10 -2 0 -5 -10 -9 -22 -10 -11 -1 -24 -6 -27
-11 -3 -5 -14 -8 -23 -6 -10 1 -18 -3 -18 -9 0 -5 -2 -8 -6 -5 -3 3 -25 0 -49
-7 -24 -8 -46 -11 -49 -8 -3 4 -6 2 -6 -4 0 -6 -11 -9 -25 -8 -14 2 -25 -1
-25 -7 0 -7 -5 -7 -13 1 -9 6 -13 30 -12 61 1 42 -1 50 -14 45 -11 -4 -9 0 5
16 10 12 13 19 7 15 -9 -5 -13 2 -13 23 0 18 -5 31 -12 32 -10 0 -10 2 -1 6
10 3 9 11 -2 34 -11 21 -12 29 -3 29 6 0 3 7 -8 16 -10 8 -12 12 -4 8 12 -6
13 -4 3 7 -7 7 -13 21 -13 31 0 10 -5 18 -11 18 -6 0 -9 7 -5 15 3 8 0 15 -7
15 -8 0 -6 4 3 10 13 8 12 10 -2 10 -10 0 -18 3 -19 8 -3 27 -10 46 -25 70
-10 15 -17 30 -16 35 1 4 -3 7 -10 7 -6 0 -9 3 -5 6 3 4 -1 13 -9 21 -8 8 -12
19 -9 24 4 5 -2 9 -11 9 -10 0 -15 3 -11 6 3 3 1 11 -4 18 -47 55 -59 72 -59
81 0 6 -13 21 -29 35 -17 13 -28 27 -25 32 3 4 -1 8 -8 8 -7 0 -24 14 -38 32
-39 49 -51 59 -62 52 -6 -4 -9 -3 -6 2 3 5 -10 24 -28 42 -19 18 -34 30 -34
28 0 -5 -11 4 -73 59 -15 14 -32 25 -37 25 -6 0 -10 5 -10 10 0 6 -7 10 -15
10 -8 0 -15 5 -15 12 0 6 -3 8 -7 5 -3 -4 -13 2 -21 14 -8 11 -20 18 -28 15
-9 -4 -14 2 -14 17 0 18 -2 19 -10 7 -6 -10 -10 -11 -10 -2 0 6 -7 12 -15 12
-8 0 -15 5 -15 10 0 6 -7 10 -16 10 -8 0 -13 4 -9 9 3 6 -4 8 -15 6 -11 -2
-18 0 -15 6 4 5 -1 9 -9 9 -9 0 -16 5 -16 11 0 5 -4 7 -10 4 -5 -3 -10 -1 -10
5 0 6 -4 9 -9 6 -5 -3 -12 1 -15 10 -3 9 -12 14 -18 12 -7 -3 -19 2 -27 9 -7
8 -20 12 -28 9 -8 -3 -11 -2 -8 3 4 8 -34 28 -43 22 -1 -1 -10 5 -18 14 -9 8
-20 13 -25 10 -5 -4 -9 -3 -9 2 0 15 -49 32 -54 19 -2 -6 -5 -3 -5 6 -1 11 -8
16 -21 13 -11 -2 -18 0 -15 6 4 5 -5 9 -19 9 -14 0 -26 3 -26 8 0 7 -63 32
-87 34 -7 1 -13 5 -13 10 0 4 -8 8 -18 8 -10 0 -27 7 -38 15 -10 8 -14 15 -9
14 6 -1 19 -1 30 0 17 1 18 3 5 11 -13 9 -13 10 0 11 34 2 55 8 58 18 2 6 10
11 18 11 8 0 17 7 20 15 4 8 10 13 14 10 5 -3 11 -1 15 5 4 6 11 7 17 4 6 -4
9 -3 6 2 -3 5 6 18 20 28 16 12 23 14 18 5 -4 -8 2 -3 15 11 12 14 26 24 30
23 5 -2 9 2 9 7 0 6 7 10 16 10 8 0 12 5 9 10 -3 6 -2 10 2 10 5 0 39 29 76
65 37 36 65 65 62 65 -3 0 0 6 7 14 7 8 16 12 20 9 4 -2 5 4 1 14 -3 10 -3 15
2 11 10 -9 55 73 47 86 -3 5 0 6 5 3 12 -7 36 16 27 25 -3 4 1 19 9 35 8 15
12 33 10 40 -2 6 1 14 6 18 6 3 11 22 11 41 0 20 5 34 13 34 7 0 8 3 2 8 -14
10 -17 32 -4 32 8 0 7 6 -2 17 -12 15 -12 16 1 8 13 -8 13 -7 0 10 -11 14 -12
19 -2 22 6 3 10 9 6 14 -3 5 3 9 13 10 111 4 150 3 146 -5 -4 -5 0 -5 8 0 8 4
20 10 27 11 23 6 47 11 52 13 3 1 8 2 13 1 4 0 7 4 7 11 0 6 3 8 7 5 3 -4 12
1 20 11 10 11 12 12 8 2 -4 -8 3 -4 14 10 11 14 21 21 21 17 0 -4 6 -2 14 5 8
7 12 16 9 21 -2 4 4 7 13 7 10 0 15 3 12 6 -3 3 5 16 19 30 13 13 21 29 18 34
-3 6 1 7 9 4 11 -4 16 0 16 15 0 12 5 21 12 21 6 0 9 3 5 6 -3 4 0 13 8 21 8
8 15 23 15 34 0 11 4 18 9 14 6 -3 8 3 6 14 -2 11 3 22 12 25 8 4 13 13 9 21
-3 8 -1 17 5 20 5 4 7 10 4 15 -3 5 -1 11 5 15 6 4 8 11 5 16 -4 5 -2 9 3 9 5
0 8 11 7 25 -2 14 0 25 4 25 8 0 9 7 12 53 1 21 29 36 29 15z m-4690 -548 c0
-5 -2 -10 -4 -10 -3 0 -8 5 -11 10 -3 6 -1 10 4 10 6 0 11 -4 11 -10z"/>
<path d="M1590 4596 c0 -2 7 -7 16 -10 8 -3 12 -2 9 4 -6 10 -25 14 -25 6z"/>
<path d="M4647 3003 c-4 -6 -22 -10 -41 -9 -19 1 -33 -1 -30 -3 7 -7 -69 -30
-79 -24 -6 3 -7 2 -4 -4 3 -5 -13 -19 -36 -31 -23 -12 -41 -24 -39 -27 6 -13
1 -26 -8 -20 -5 3 -10 -1 -10 -9 0 -9 -6 -13 -14 -10 -10 4 -16 -2 -18 -18 -2
-13 -9 -22 -15 -21 -7 2 -10 -4 -7 -12 4 -8 1 -15 -6 -15 -6 0 -8 -4 -5 -10 3
-5 1 -10 -5 -10 -6 0 -8 -5 -5 -10 4 -6 1 -17 -5 -25 -7 -8 -10 -22 -6 -30 3
-9 2 -14 -3 -10 -14 8 -20 -18 -9 -39 7 -13 7 -16 -1 -12 -7 5 -10 -13 -8 -53
1 -32 5 -57 8 -55 12 7 18 -23 8 -33 -7 -7 -5 -16 5 -26 19 -19 21 -31 4 -22
-7 4 -4 -1 6 -9 11 -9 17 -16 13 -16 -4 0 1 -10 13 -22 11 -12 20 -28 20 -35
0 -7 5 -13 11 -13 5 0 7 -4 4 -10 -4 -6 1 -7 11 -3 11 4 15 2 11 -4 -4 -6 0
-14 9 -17 8 -3 12 -11 9 -16 -4 -6 -3 -9 2 -8 10 3 56 -21 64 -34 3 -5 16 -10
27 -11 12 -1 22 -5 22 -9 0 -4 11 -8 25 -8 14 0 25 -5 25 -11 0 -8 6 -7 17 2
9 8 14 9 10 2 -5 -8 13 -11 68 -11 41 0 78 4 81 9 3 5 14 9 25 9 14 0 18 4 13
13 -6 9 -4 9 8 -1 13 -10 17 -10 22 3 3 9 10 14 15 10 5 -3 12 -1 16 5 4 6 11
7 17 4 6 -4 8 -3 5 3 -4 6 5 15 18 21 14 7 25 16 25 22 0 6 5 8 10 5 6 -3 10
-1 10 6 0 6 12 22 26 35 14 14 26 33 27 43 1 11 4 18 8 15 4 -2 12 3 18 10 9
10 9 16 1 21 -8 5 -7 10 4 18 8 7 16 28 19 48 2 20 7 41 11 47 3 6 0 13 -6 15
-10 4 -9 8 2 16 10 8 12 13 4 19 -6 4 -10 18 -9 32 1 14 -2 31 -8 38 -6 8 -6
12 2 12 13 0 -15 58 -34 72 -5 4 -6 8 -2 8 11 0 -25 60 -36 60 -4 0 -5 5 -2
10 3 6 -1 10 -10 10 -9 0 -13 5 -10 10 3 6 1 10 -5 10 -6 0 -22 11 -35 24 -13
14 -34 27 -45 31 -11 3 -20 11 -20 16 0 6 -4 7 -10 4 -5 -3 -10 -1 -10 5 0 7
-8 9 -21 5 -16 -5 -19 -4 -14 6 6 9 3 11 -8 6 -10 -3 -17 -3 -17 1 0 5 -16 7
-35 6 -20 -2 -34 0 -31 4 3 4 -4 9 -15 9 -11 1 -17 -2 -14 -8 4 -5 2 -9 -4 -9
-5 0 -11 5 -13 12 -3 8 -6 9 -11 1z m79 -182 c25 6 112 -53 107 -72 -2 -4 4
-6 11 -3 10 4 14 0 12 -13 -2 -10 6 -23 18 -30 12 -7 15 -12 7 -13 -11 0 -11
-3 -1 -15 7 -8 10 -21 7 -29 -3 -7 0 -19 6 -25 8 -8 8 -11 -1 -11 -7 0 -12 -5
-12 -11 0 -5 5 -7 12 -3 7 5 8 3 2 -7 -5 -8 -9 -18 -9 -24 -2 -33 -61 -115
-83 -115 -5 0 -13 -7 -16 -16 -3 -8 -10 -12 -16 -9 -5 3 -10 1 -10 -5 0 -7 -7
-10 -15 -6 -8 3 -15 1 -15 -5 0 -6 -4 -8 -9 -4 -5 3 -12 1 -16 -5 -4 -6 -12
-7 -18 -3 -7 4 -27 8 -46 10 -19 2 -39 7 -45 13 -5 5 -18 10 -27 10 -10 0 -21
9 -24 20 -4 11 -11 18 -16 15 -5 -4 -13 5 -19 19 -5 14 -14 26 -19 26 -5 0
-12 7 -15 16 -6 15 -4 15 11 3 15 -11 15 -10 -1 9 -25 28 -29 138 -6 152 8 5
11 10 5 10 -5 0 -1 7 9 15 11 8 15 15 8 15 -6 0 5 17 26 37 20 21 43 36 50 35
6 -2 12 1 12 6 0 9 16 13 68 14 17 1 32 6 32 11 0 5 6 4 14 -2 8 -6 18 -11 22
-10z"/>
<path d="M5493 2963 c5 -9 -15 -11 -78 -9 l-85 2 0 -61 c-1 -33 -2 -117 -3
-188 -1 -77 2 -129 8 -131 7 -3 7 -5 0 -5 -13 -1 -9 -281 4 -294 5 -5 18 -6
28 -2 25 11 45 12 66 2 11 -5 17 -4 17 4 0 8 4 8 15 -1 8 -6 20 -8 27 -4 18
11 40 11 56 0 9 -7 16 -5 22 3 5 10 9 10 15 2 5 -9 10 -9 21 0 11 9 15 8 20
-5 6 -15 8 -15 21 1 8 10 12 12 8 6 -8 -16 0 -16 26 -3 15 9 21 7 25 -5 6 -14
8 -14 21 2 8 10 12 12 8 6 -8 -16 0 -16 26 -3 15 9 21 7 25 -5 6 -14 8 -14 21
2 8 10 12 12 8 6 -8 -16 0 -16 26 -3 15 9 21 7 25 -5 6 -14 8 -14 21 2 8 10
12 12 8 6 -7 -15 1 -15 30 -4 11 5 25 4 33 -1 8 -7 12 -6 12 3 0 12 2 12 9 0
7 -11 10 -11 17 0 13 20 12 83 0 91 -7 5 -7 8 -1 8 12 0 13 89 2 108 -5 6 -4
12 2 12 10 0 7 52 -4 70 -3 5 -2 11 3 14 11 6 9 107 -2 125 -6 10 -5 12 3 7 8
-5 10 0 7 18 -2 14 1 27 7 30 7 3 6 5 -3 5 -9 1 -15 11 -15 25 0 13 3 23 6 21
3 -2 5 28 4 68 l-1 72 -189 -1 c-131 -1 -192 2 -197 10 -5 7 -8 7 -8 -3 0 -7
-6 -11 -13 -8 -8 3 -20 1 -28 -3 -8 -5 -19 -4 -26 2 -8 6 -16 8 -20 5 -3 -4
-13 -1 -21 6 -11 8 -14 8 -9 0z m201 -168 c-4 -8 -1 -15 5 -15 6 0 11 6 11 13
0 9 3 8 9 -2 6 -10 10 -10 16 -1 6 9 10 9 16 -1 7 -11 9 -11 9 1 0 13 1 13 10
0 8 -12 11 -13 19 -1 6 9 11 10 15 3 4 -6 13 -9 20 -6 7 3 16 -2 20 -11 4 -11
2 -14 -7 -9 -8 5 -7 2 2 -9 7 -9 9 -17 4 -17 -5 0 -10 -7 -10 -15 0 -8 5 -15
10 -15 5 0 4 -7 -3 -15 -10 -12 -10 -15 1 -15 11 0 11 -2 -1 -10 -8 -5 -10
-10 -3 -10 9 0 11 -27 3 -37 -7 -8 -5 -30 3 -40 6 -9 5 -13 -3 -13 -10 0 -10
-3 -1 -14 9 -10 9 -16 1 -21 -8 -5 -8 -11 1 -21 9 -11 8 -14 -2 -15 -11 0 -11
-2 -1 -6 10 -4 10 -8 1 -19 -9 -11 -9 -14 0 -14 7 0 9 -5 6 -11 -4 -5 -12 -8
-18 -6 -7 2 -20 0 -29 -4 -10 -6 -19 -5 -24 2 -4 8 -9 7 -15 -2 -5 -8 -9 -9
-9 -3 0 11 -49 12 -67 1 -6 -4 -14 -3 -18 2 -3 6 -15 7 -28 2 -12 -5 -29 -7
-37 -5 -8 1 -25 5 -37 8 -13 3 -25 1 -28 -5 -4 -6 -13 -6 -24 0 -12 7 -18 24
-20 56 -1 31 2 45 8 40 8 -4 8 2 1 21 -6 15 -9 33 -6 40 3 8 1 16 -5 20 -6 4
-6 11 2 20 9 11 8 14 -2 15 -8 0 -9 3 -3 5 6 3 9 26 7 55 -3 33 0 49 6 44 7
-3 8 0 5 9 -3 9 -11 13 -17 9 -6 -3 -7 -1 -3 6 5 7 27 11 55 10 26 -1 52 1 58
4 6 4 14 1 16 -5 4 -10 8 -9 16 2 8 12 11 12 11 1 0 -11 3 -11 15 -1 12 10 15
10 15 -1 1 -10 4 -8 11 4 12 21 20 23 13 2z"/>
</g>
</svg>
