<svg width="168" height="132" viewBox="0 0 168 132" fill="none" xmlns="http://www.w3.org/2000/svg">
<path d="M27.2977 49V2.47168H41.3577L49.8001 34.21L58.1473 2.47168H72.2391V49H63.511V12.374L54.2752 49H45.2298L36.0257 12.374V49H27.2977ZM86.2217 25.5771L78.1284 24.1172C79.0382 20.8587 80.604 18.4466 82.8257 16.8809C85.0474 15.3151 88.3481 14.5322 92.728 14.5322C96.7059 14.5322 99.6681 15.0083 101.615 15.9604C103.561 16.8914 104.926 18.0869 105.709 19.5469C106.513 20.9857 106.915 23.6411 106.915 27.5132L106.82 37.9233C106.82 40.8856 106.957 43.0755 107.232 44.4932C107.529 45.8896 108.068 47.3919 108.851 49H100.028C99.7951 48.4076 99.5094 47.5295 99.1709 46.3657C99.0228 45.8368 98.917 45.4876 98.8535 45.3184C97.3301 46.7995 95.7008 47.9103 93.9658 48.6509C92.2308 49.3914 90.3794 49.7617 88.4116 49.7617C84.9416 49.7617 82.2015 48.8201 80.1914 46.937C78.2025 45.0539 77.208 42.6735 77.208 39.7959C77.208 37.8916 77.6629 36.1989 78.5728 34.7178C79.4826 33.2155 80.7521 32.0729 82.3813 31.29C84.0317 30.486 86.4015 29.7878 89.4907 29.1953C93.659 28.4124 96.5472 27.6825 98.1553 27.0054V26.1167C98.1553 24.4028 97.7321 23.1862 96.8857 22.4668C96.0394 21.7262 94.4419 21.356 92.0933 21.356C90.5063 21.356 89.2686 21.6733 88.3799 22.3081C87.4912 22.9217 86.7718 24.0114 86.2217 25.5771ZM98.1553 32.8135C97.0127 33.1943 95.2036 33.6493 92.728 34.1782C90.2524 34.7072 88.6338 35.2256 87.8721 35.7334C86.7083 36.5586 86.1265 37.606 86.1265 38.8755C86.1265 40.1239 86.592 41.203 87.5229 42.1128C88.4539 43.0226 89.6388 43.4775 91.0776 43.4775C92.6857 43.4775 94.2197 42.9486 95.6797 41.8906C96.7588 41.0866 97.4676 40.1027 97.8062 38.939C98.0389 38.1772 98.1553 36.7279 98.1553 34.5908V32.8135ZM109.567 15.2939H119.057L127.118 39.2246L134.989 15.2939H144.225L132.323 47.7305L130.197 53.6021C129.414 55.5698 128.663 57.0721 127.944 58.1089C127.245 59.1457 126.431 59.9814 125.5 60.6162C124.59 61.2721 123.458 61.7799 122.104 62.1396C120.771 62.4993 119.258 62.6792 117.565 62.6792C115.851 62.6792 114.169 62.4993 112.519 62.1396L111.725 55.1572C113.122 55.4323 114.381 55.5698 115.502 55.5698C117.576 55.5698 119.11 54.9562 120.104 53.729C121.099 52.5229 121.86 50.9784 122.389 49.0952L109.567 15.2939ZM47.4426 119.716V128H16.1804C16.5189 124.868 17.5345 121.906 19.2272 119.113C20.92 116.299 24.2631 112.575 29.2565 107.941C33.2767 104.196 35.7417 101.657 36.6516 100.324C37.8788 98.4834 38.4924 96.6637 38.4924 94.8652C38.4924 92.8763 37.9528 91.3529 36.8737 90.2949C35.8158 89.2158 34.3453 88.6763 32.4621 88.6763C30.6001 88.6763 29.119 89.237 28.0188 90.3584C26.9185 91.4798 26.2837 93.3418 26.1145 95.9443L17.2277 95.0557C17.7567 90.1468 19.4177 86.6239 22.2106 84.4868C25.0036 82.3498 28.4948 81.2812 32.6843 81.2812C37.2758 81.2812 40.8833 82.519 43.507 84.9946C46.1307 87.4702 47.4426 90.5488 47.4426 94.2305C47.4426 96.3252 47.0617 98.3247 46.3 100.229C45.5594 102.112 44.3745 104.09 42.7453 106.164C41.6662 107.539 39.7196 109.518 36.9055 112.099C34.0913 114.681 32.3034 116.394 31.5417 117.241C30.8011 118.087 30.1981 118.912 29.7326 119.716H47.4426ZM66.6303 81.2812C71.1371 81.2812 74.6601 82.8893 77.1991 86.1055C80.2248 89.9141 81.7377 96.23 81.7377 105.053C81.7377 113.855 80.2143 120.182 77.1674 124.033C74.6495 127.207 71.1371 128.793 66.6303 128.793C62.1023 128.793 58.4524 127.058 55.6806 123.588C52.9088 120.097 51.5229 113.887 51.5229 104.958C51.5229 96.1982 53.0463 89.8929 56.0932 86.042C58.6111 82.8682 62.1234 81.2812 66.6303 81.2812ZM66.6303 88.6763C65.5512 88.6763 64.5884 89.0254 63.7421 89.7236C62.8957 90.4007 62.2398 91.6279 61.7743 93.4053C61.1607 95.7116 60.8539 99.5942 60.8539 105.053C60.8539 110.512 61.129 114.268 61.6791 116.32C62.2292 118.352 62.9169 119.706 63.7421 120.383C64.5884 121.06 65.5512 121.398 66.6303 121.398C67.7094 121.398 68.6721 121.06 69.5185 120.383C70.3648 119.685 71.0207 118.447 71.4862 116.669C72.0998 114.384 72.4066 110.512 72.4066 105.053C72.4066 99.5942 72.1316 95.8491 71.5814 93.8179C71.0313 91.7655 70.3331 90.4007 69.4867 89.7236C68.6615 89.0254 67.7094 88.6763 66.6303 88.6763ZM115.906 119.716V128H84.6437C84.9822 124.868 85.9978 121.906 87.6905 119.113C89.3832 116.299 92.7263 112.575 97.7198 107.941C101.74 104.196 104.205 101.657 105.115 100.324C106.342 98.4834 106.956 96.6637 106.956 94.8652C106.956 92.8763 106.416 91.3529 105.337 90.2949C104.279 89.2158 102.809 88.6763 100.925 88.6763C99.0634 88.6763 97.5823 89.237 96.482 90.3584C95.3818 91.4798 94.747 93.3418 94.5777 95.9443L85.691 95.0557C86.22 90.1468 87.881 86.6239 90.6739 84.4868C93.4669 82.3498 96.9581 81.2812 101.148 81.2812C105.739 81.2812 109.347 82.519 111.97 84.9946C114.594 87.4702 115.906 90.5488 115.906 94.2305C115.906 96.3252 115.525 98.3247 114.763 100.229C114.023 102.112 112.838 104.09 111.209 106.164C110.129 107.539 108.183 109.518 105.369 112.099C102.555 114.681 100.767 116.394 100.005 117.241C99.2644 118.087 98.6614 118.912 98.1959 119.716H115.906ZM137.506 128V118.637H118.463V110.83L138.648 81.2812H146.138V110.798H151.915V118.637H146.138V128H137.506ZM137.506 110.798V94.897L126.81 110.798H137.506Z" fill="url(#paint0_linear_1849_2491)"/>
<defs>
<linearGradient id="paint0_linear_1849_2491" x1="65.6173" y1="-76.7133" x2="220.968" y2="110.101" gradientUnits="userSpaceOnUse">
<stop stop-color="#00FFC4"/>
<stop offset="1" stop-color="#56D7FE"/>
</linearGradient>
</defs>
</svg>
