<svg width="176" height="127" viewBox="0 0 176 127" fill="none" xmlns="http://www.w3.org/2000/svg">
<path d="M0.652931 46.5447V0.0163574H14.713L23.1554 31.7546L31.5025 0.0163574H45.5943V46.5447H36.8663V9.9187L27.6305 46.5447H18.5851L9.38096 9.9187V46.5447H0.652931ZM59.577 23.1218L51.4837 21.6619C52.3935 18.4034 53.9593 15.9913 56.181 14.4255C58.4026 12.8598 61.7034 12.0769 66.0833 12.0769C70.0612 12.0769 73.0234 12.553 74.97 13.5051C76.9166 14.4361 78.2814 15.6316 79.0643 17.0916C79.8683 18.5304 80.2703 21.1858 80.2703 25.0579L80.1751 35.468C80.1751 38.4303 80.3126 40.6202 80.5877 42.0378C80.8839 43.4343 81.4235 44.9366 82.2063 46.5447H73.3831C73.1504 45.9522 72.8647 45.0741 72.5262 43.9104C72.3781 43.3814 72.2723 43.0323 72.2088 42.863C70.6854 44.3442 69.0561 45.455 67.3211 46.1956C65.5861 46.9361 63.7347 47.3064 61.7669 47.3064C58.2968 47.3064 55.5568 46.3648 53.5467 44.4817C51.5577 42.5986 50.5633 40.2182 50.5633 37.3406C50.5633 35.4363 51.0182 33.7436 51.928 32.2625C52.8379 30.7602 54.1074 29.6176 55.7366 28.8347C57.387 28.0307 59.7568 27.3324 62.846 26.74C67.0143 25.9571 69.9025 25.2271 71.5105 24.55V23.6614C71.5105 21.9475 71.0874 20.7309 70.241 20.0115C69.3947 19.2709 67.7972 18.9006 65.4485 18.9006C63.8616 18.9006 62.6238 19.218 61.7352 19.8528C60.8465 20.4664 60.1271 21.5561 59.577 23.1218ZM71.5105 30.3582C70.368 30.739 68.5589 31.1939 66.0833 31.7229C63.6077 32.2519 61.9891 32.7703 61.2273 33.2781C60.0636 34.1033 59.4817 35.1506 59.4817 36.4202C59.4817 37.6685 59.9472 38.7476 60.8782 39.6575C61.8092 40.5673 62.9941 41.0222 64.4329 41.0222C66.041 41.0222 67.575 40.4932 69.035 39.4353C70.1141 38.6313 70.8229 37.6474 71.1614 36.4836C71.3942 35.7219 71.5105 34.2725 71.5105 32.1355V30.3582ZM95.6812 46.5447H86.7627V12.8386H95.0464V17.6311C96.464 15.3671 97.7336 13.8754 98.855 13.156C99.9976 12.4366 101.288 12.0769 102.727 12.0769C104.758 12.0769 106.715 12.6376 108.599 13.759L105.837 21.5349C104.335 20.5616 102.939 20.075 101.648 20.075C100.4 20.075 99.3416 20.4241 98.4741 21.1223C97.6066 21.7994 96.9189 23.0372 96.4111 24.8357C95.9245 26.6342 95.6812 30.4005 95.6812 36.1345V46.5447ZM139.91 22.8044L131.119 24.3914C130.823 22.6352 130.146 21.3127 129.088 20.4241C128.051 19.5354 126.697 19.0911 125.025 19.0911C122.803 19.0911 121.026 19.8634 119.693 21.408C118.381 22.9314 117.725 25.4916 117.725 29.0886C117.725 33.0876 118.392 35.9124 119.725 37.5627C121.079 39.2131 122.888 40.0383 125.152 40.0383C126.845 40.0383 128.231 39.5623 129.31 38.6101C130.389 37.6368 131.151 35.9758 131.595 33.6272L140.355 35.1189C139.445 39.1391 137.699 42.1754 135.118 44.2278C132.536 46.2802 129.077 47.3064 124.739 47.3064C119.809 47.3064 115.874 45.7512 112.933 42.6409C110.013 39.5305 108.553 35.2247 108.553 29.7234C108.553 24.1586 110.023 19.8316 112.965 16.7424C115.906 13.6321 119.883 12.0769 124.898 12.0769C129.003 12.0769 132.261 12.9656 134.674 14.7429C137.107 16.4991 138.852 19.1863 139.91 22.8044ZM153.639 0.0163574V17.1233C156.517 13.759 159.955 12.0769 163.954 12.0769C166.006 12.0769 167.858 12.4578 169.508 13.2195C171.159 13.9812 172.396 14.9545 173.222 16.1394C174.068 17.3243 174.639 18.6361 174.935 20.075C175.253 21.5138 175.412 23.746 175.412 26.7717V46.5447H166.493V28.7395C166.493 25.206 166.324 22.9631 165.985 22.011C165.647 21.0588 165.044 20.3077 164.176 19.7576C163.33 19.1863 162.261 18.9006 160.971 18.9006C159.489 18.9006 158.167 19.2603 157.003 19.9797C155.84 20.6991 154.983 21.7888 154.433 23.2488C153.904 24.6876 153.639 26.8246 153.639 29.6599V46.5447H144.721V0.0163574H153.639ZM51.3796 117.261V125.545H20.1174C20.4559 122.413 21.4716 119.451 23.1643 116.658C24.857 113.844 28.2001 110.12 33.1936 105.486C37.2137 101.741 39.6787 99.2019 40.5886 97.8689C41.8158 96.0281 42.4294 94.2084 42.4294 92.4099C42.4294 90.421 41.8898 88.8975 40.8107 87.8396C39.7528 86.7605 38.2823 86.2209 36.3991 86.2209C34.5371 86.2209 33.056 86.7817 31.9558 87.9031C30.8555 89.0245 30.2207 90.8865 30.0515 93.489L21.1647 92.6003C21.6937 87.6915 23.3547 84.1685 26.1477 82.0315C28.9406 79.8944 32.4318 78.8259 36.6213 78.8259C41.2128 78.8259 44.8203 80.0637 47.444 82.5393C50.0677 85.0149 51.3796 88.0935 51.3796 91.7751C51.3796 93.8699 50.9987 95.8694 50.237 97.7737C49.4965 99.6568 48.3116 101.635 46.6823 103.709C45.6032 105.084 43.6566 107.062 40.8425 109.644C38.0284 112.225 36.2404 113.939 35.4787 114.785C34.7382 115.632 34.1351 116.457 33.6696 117.261H51.3796ZM70.5673 78.8259C75.0741 78.8259 78.5971 80.434 81.1361 83.6501C84.1619 87.4587 85.6747 93.7747 85.6747 102.598C85.6747 111.4 84.1513 117.726 81.1044 121.577C78.5865 124.751 75.0741 126.338 70.5673 126.338C66.0393 126.338 62.3894 124.603 59.6176 121.133C56.8458 117.642 55.4599 111.432 55.4599 102.503C55.4599 93.7429 56.9833 87.4376 60.0302 83.5867C62.5481 80.4128 66.0605 78.8259 70.5673 78.8259ZM70.5673 86.2209C69.4882 86.2209 68.5255 86.5701 67.6791 87.2683C66.8327 87.9454 66.1768 89.1726 65.7113 90.95C65.0977 93.2563 64.7909 97.1389 64.7909 102.598C64.7909 108.057 65.066 111.813 65.6161 113.865C66.1662 115.896 66.8539 117.25 67.6791 117.927C68.5255 118.605 69.4882 118.943 70.5673 118.943C71.6464 118.943 72.6091 118.605 73.4555 117.927C74.3018 117.229 74.9577 115.991 75.4232 114.214C76.0369 111.929 76.3437 108.057 76.3437 102.598C76.3437 97.1389 76.0686 93.3938 75.5185 91.3625C74.9683 89.3101 74.2701 87.9454 73.4237 87.2683C72.5985 86.5701 71.6464 86.2209 70.5673 86.2209ZM119.843 117.261V125.545H88.5807C88.9192 122.413 89.9348 119.451 91.6275 116.658C93.3202 113.844 96.6633 110.12 101.657 105.486C105.677 101.741 108.142 99.2019 109.052 97.8689C110.279 96.0281 110.893 94.2084 110.893 92.4099C110.893 90.421 110.353 88.8975 109.274 87.8396C108.216 86.7605 106.746 86.2209 104.862 86.2209C103 86.2209 101.519 86.7817 100.419 87.9031C99.3188 89.0245 98.684 90.8865 98.5147 93.489L89.628 92.6003C90.157 87.6915 91.818 84.1685 94.6109 82.0315C97.4039 79.8944 100.895 78.8259 105.085 78.8259C109.676 78.8259 113.284 80.0637 115.907 82.5393C118.531 85.0149 119.843 88.0935 119.843 91.7751C119.843 93.8699 119.462 95.8694 118.7 97.7737C117.96 99.6568 116.775 101.635 115.146 103.709C114.067 105.084 112.12 107.062 109.306 109.644C106.492 112.225 104.704 113.939 103.942 114.785C103.201 115.632 102.598 116.457 102.133 117.261H119.843ZM123.638 113.198L132.27 112.151C132.545 114.352 133.286 116.034 134.492 117.198C135.698 118.361 137.158 118.943 138.872 118.943C140.713 118.943 142.257 118.245 143.506 116.848C144.775 115.452 145.41 113.569 145.41 111.199C145.41 108.956 144.807 107.179 143.601 105.867C142.395 104.555 140.924 103.899 139.189 103.899C138.047 103.899 136.682 104.121 135.095 104.566L136.079 97.2976C138.491 97.3611 140.332 96.8427 141.601 95.7424C142.871 94.621 143.506 93.1399 143.506 91.2991C143.506 89.7333 143.04 88.4849 142.109 87.554C141.178 86.623 139.94 86.1575 138.396 86.1575C136.872 86.1575 135.571 86.6864 134.492 87.7444C133.413 88.8023 132.757 90.3469 132.524 92.3782L124.304 90.9817C124.875 88.1676 125.732 85.9247 126.875 84.2532C128.039 82.5605 129.647 81.238 131.699 80.2859C133.773 79.3126 136.089 78.8259 138.65 78.8259C143.03 78.8259 146.542 80.2224 149.187 83.0154C151.366 85.3005 152.456 87.8819 152.456 90.7595C152.456 94.8432 150.224 98.1016 145.759 100.535C148.425 101.106 150.552 102.386 152.138 104.375C153.747 106.364 154.551 108.766 154.551 111.58C154.551 115.663 153.059 119.144 150.075 122.022C147.092 124.899 143.379 126.338 138.935 126.338C134.725 126.338 131.234 125.132 128.462 122.72C125.69 120.287 124.082 117.113 123.638 113.198Z" fill="url(#paint0_linear_295_6455)"/>
<defs>
<linearGradient id="paint0_linear_295_6455" x1="70.1348" y1="-79.1687" x2="226.319" y2="102.717" gradientUnits="userSpaceOnUse">
<stop stop-color="#00FFC4"/>
<stop offset="1" stop-color="#56D7FE"/>
</linearGradient>
</defs>
</svg>
